  0
SECTION
  2
HEADER
  9
$ACADVER
  1
AC1024
  9
$ACADMAINTVER
 70
6
  9
$DWGCODEPAGE
  3
ANSI_1252
  9
$LASTSAVEDBY
  1
ezdxf
  9
$INSBASE
 10
0.0
 20
0.0
 30
0.0
  9
$EXTMIN
 10
1e+20
 20
1e+20
 30
1e+20
  9
$EXTMAX
 10
-1e+20
 20
-1e+20
 30
-1e+20
  9
$LIMMIN
 10
0.0
 20
0.0
  9
$LIMMAX
 10
420.0
 20
297.0
  9
$ORTHOMODE
 70
0
  9
$REGENMODE
 70
1
  9
$FILLMODE
 70
1
  9
$QTEXTMODE
 70
0
  9
$MIRRTEXT
 70
1
  9
$LTSCALE
 40
1.0
  9
$ATTMODE
 70
1
  9
$TEXTSIZE
 40
2.5
  9
$TRACEWID
 40
1.0
  9
$TEXTSTYLE
  7
Standard
  9
$CLAYER
  8
0
  9
$CELTYPE
  6
ByLayer
  9
$CECOLOR
 62
256
  9
$CELTSCALE
 40
1.0
  9
$DISPSILH
 70
0
  9
$DIMSCALE
 40
1.0
  9
$DIMASZ
 40
2.5
  9
$DIMEXO
 40
0.625
  9
$DIMDLI
 40
3.75
  9
$DIMRND
 40
0.0
  9
$DIMDLE
 40
0.0
  9
$DIMEXE
 40
1.25
  9
$DIMTP
 40
0.0
  9
$DIMTM
 40
0.0
  9
$DIMTXT
 40
2.5
  9
$DIMCEN
 40
2.5
  9
$DIMTSZ
 40
0.0
  9
$DIMTOL
 70
0
  9
$DIMLIM
 70
0
  9
$DIMTIH
 70
0
  9
$DIMTOH
 70
0
  9
$DIMSE1
 70
0
  9
$DIMSE2
 70
0
  9
$DIMTAD
 70
1
  9
$DIMZIN
 70
8
  9
$DIMBLK
  1

  9
$DIMASO
 70
1
  9
$DIMSHO
 70
1
  9
$DIMPOST
  1

  9
$DIMAPOST
  1

  9
$DIMALT
 70
0
  9
$DIMALTD
 70
3
  9
$DIMALTF
 40
0.03937007874
  9
$DIMLFAC
 40
1.0
  9
$DIMTOFL
 70
1
  9
$DIMTVP
 40
0.0
  9
$DIMTIX
 70
0
  9
$DIMSOXD
 70
0
  9
$DIMSAH
 70
0
  9
$DIMBLK1
  1

  9
$DIMBLK2
  1

  9
$DIMSTYLE
  2
ISO-25
  9
$DIMCLRD
 70
0
  9
$DIMCLRE
 70
0
  9
$DIMCLRT
 70
0
  9
$DIMTFAC
 40
1.0
  9
$DIMGAP
 40
0.625
  9
$DIMJUST
 70
0
  9
$DIMSD1
 70
0
  9
$DIMSD2
 70
0
  9
$DIMTOLJ
 70
0
  9
$DIMTZIN
 70
8
  9
$DIMALTZ
 70
0
  9
$DIMALTTZ
 70
0
  9
$DIMUPT
 70
0
  9
$DIMDEC
 70
2
  9
$DIMTDEC
 70
2
  9
$DIMALTU
 70
2
  9
$DIMALTTD
 70
3
  9
$DIMTXSTY
  7
Standard
  9
$DIMAUNIT
 70
0
  9
$DIMADEC
 70
0
  9
$DIMALTRND
 40
0.0
  9
$DIMAZIN
 70
0
  9
$DIMDSEP
 70
44
  9
$DIMATFIT
 70
3
  9
$DIMFRAC
 70
0
  9
$DIMLDRBLK
  1

  9
$DIMLUNIT
 70
2
  9
$DIMLWD
 70
-2
  9
$DIMLWE
 70
-2
  9
$DIMTMOVE
 70
0
  9
$DIMFXL
 40
1.0
  9
$DIMFXLON
 70
0
  9
$DIMJOGANG
 40
0.785398163397
  9
$DIMTFILL
 70
0
  9
$DIMTFILLCLR
 70
0
  9
$DIMARCSYM
 70
0
  9
$DIMLTYPE
  6

  9
$DIMLTEX1
  6

  9
$DIMLTEX2
  6

  9
$DIMTXTDIRECTION
 70
0
  9
$LUNITS
 70
2
  9
$LUPREC
 70
4
  9
$SKETCHINC
 40
1.0
  9
$FILLETRAD
 40
10.0
  9
$AUNITS
 70
0
  9
$AUPREC
 70
2
  9
$MENU
  1
.
  9
$ELEVATION
 40
0.0
  9
$PELEVATION
 40
0.0
  9
$THICKNESS
 40
0.0
  9
$LIMCHECK
 70
0
  9
$CHAMFERA
 40
0.0
  9
$CHAMFERB
 40
0.0
  9
$CHAMFERC
 40
0.0
  9
$CHAMFERD
 40
0.0
  9
$SKPOLY
 70
0
  9
$TDCREATE
 40
2461090.4441319443
  9
$TDUCREATE
 40
2458532.153996898
  9
$TDUPDATE
 40
2461090.4441319443
  9
$TDUUPDATE
 40
2458532.1544311
  9
$TDINDWG
 40
0.0
  9
$TDUSRTIMER
 40
0.0
  9
$USRTIMER
 70
1
  9
$ANGBASE
 50
0.0
  9
$ANGDIR
 70
0
  9
$PDMODE
 70
0
  9
$PDSIZE
 40
0.0
  9
$PLINEWID
 40
0.0
  9
$SPLFRAME
 70
0
  9
$SPLINETYPE
 70
6
  9
$SPLINESEGS
 70
8
  9
$HANDSEED
  5
B8
  9
$SURFTAB1
 70
6
  9
$SURFTAB2
 70
6
  9
$SURFTYPE
 70
6
  9
$SURFU
 70
6
  9
$SURFV
 70
6
  9
$UCSBASE
  2

  9
$UCSNAME
  2

  9
$UCSORG
 10
0.0
 20
0.0
 30
0.0
  9
$UCSXDIR
 10
1.0
 20
0.0
 30
0.0
  9
$UCSYDIR
 10
0.0
 20
1.0
 30
0.0
  9
$UCSORTHOREF
  2

  9
$UCSORTHOVIEW
 70
0
  9
$UCSORGTOP
 10
0.0
 20
0.0
 30
0.0
  9
$UCSORGBOTTOM
 10
0.0
 20
0.0
 30
0.0
  9
$UCSORGLEFT
 10
0.0
 20
0.0
 30
0.0
  9
$UCSORGRIGHT
 10
0.0
 20
0.0
 30
0.0
  9
$UCSORGFRONT
 10
0.0
 20
0.0
 30
0.0
  9
$UCSORGBACK
 10
0.0
 20
0.0
 30
0.0
  9
$PUCSBASE
  2

  9
$PUCSNAME
  2

  9
$PUCSORG
 10
0.0
 20
0.0
 30
0.0
  9
$PUCSXDIR
 10
1.0
 20
0.0
 30
0.0
  9
$PUCSYDIR
 10
0.0
 20
1.0
 30
0.0
  9
$PUCSORTHOREF
  2

  9
$PUCSORTHOVIEW
 70
0
  9
$PUCSORGTOP
 10
0.0
 20
0.0
 30
0.0
  9
$PUCSORGBOTTOM
 10
0.0
 20
0.0
 30
0.0
  9
$PUCSORGLEFT
 10
0.0
 20
0.0
 30
0.0
  9
$PUCSORGRIGHT
 10
0.0
 20
0.0
 30
0.0
  9
$PUCSORGFRONT
 10
0.0
 20
0.0
 30
0.0
  9
$PUCSORGBACK
 10
0.0
 20
0.0
 30
0.0
  9
$USERI1
 70
0
  9
$USERI2
 70
0
  9
$USERI3
 70
0
  9
$USERI4
 70
0
  9
$USERI5
 70
0
  9
$USERR1
 40
0.0
  9
$USERR2
 40
0.0
  9
$USERR3
 40
0.0
  9
$USERR4
 40
0.0
  9
$USERR5
 40
0.0
  9
$WORLDVIEW
 70
1
  9
$SHADEDGE
 70
3
  9
$SHADEDIF
 70
70
  9
$TILEMODE
 70
1
  9
$MAXACTVP
 70
64
  9
$PINSBASE
 10
0.0
 20
0.0
 30
0.0
  9
$PLIMCHECK
 70
0
  9
$PEXTMIN
 10
1e+20
 20
1e+20
 30
1e+20
  9
$PEXTMAX
 10
-1e+20
 20
-1e+20
 30
-1e+20
  9
$PLIMMIN
 10
0.0
 20
0.0
  9
$PLIMMAX
 10
420.0
 20
297.0
  9
$UNITMODE
 70
0
  9
$VISRETAIN
 70
1
  9
$PLINEGEN
 70
0
  9
$PSLTSCALE
 70
1
  9
$TREEDEPTH
 70
3020
  9
$CMLSTYLE
  2
Standard
  9
$CMLJUST
 70
0
  9
$CMLSCALE
 40
20.0
  9
$PROXYGRAPHICS
 70
1
  9
$MEASUREMENT
 70
1
  9
$CELWEIGHT
370
-1
  9
$ENDCAPS
280
0
  9
$JOINSTYLE
280
0
  9
$LWDISPLAY
290
0
  9
$INSUNITS
 70
6
  9
$HYPERLINKBASE
  1

  9
$STYLESHEET
  1

  9
$XEDIT
290
1
  9
$CEPSNTYPE
380
0
  9
$PSTYLEMODE
290
1
  9
$FINGERPRINTGUID
  2
{C8A466FE-5090-465D-8C6C-2B5B67F2E4A3}
  9
$VERSIONGUID
  2
{BB11FACA-10B5-4515-AAE9-10A95A1926EC}
  9
$EXTNAMES
290
1
  9
$PSVPSCALE
 40
0.0
  9
$OLESTARTUP
290
0
  9
$SORTENTS
280
127
  9
$INDEXCTL
280
0
  9
$HIDETEXT
280
1
  9
$XCLIPFRAME
280
1
  9
$HALOGAP
280
0
  9
$OBSCOLOR
 70
257
  9
$OBSLTYPE
280
0
  9
$INTERSECTIONDISPLAY
280
0
  9
$INTERSECTIONCOLOR
 70
257
  9
$DIMASSOC
280
2
  9
$PROJECTNAME
  1

  9
$CAMERADISPLAY
290
0
  9
$LENSLENGTH
 40
50.0
  9
$CAMERAHEIGHT
 40
0.0
  9
$STEPSPERSEC
 40
24.0
  9
$STEPSIZE
 40
100.0
  9
$3DDWFPREC
 40
2.0
  9
$PSOLWIDTH
 40
0.005
  9
$PSOLHEIGHT
 40
0.08
  9
$LOFTANG1
 40
1.570796326795
  9
$LOFTANG2
 40
1.570796326795
  9
$LOFTMAG1
 40
0.0
  9
$LOFTMAG2
 40
0.0
  9
$LOFTPARAM
 70
7
  9
$LOFTNORMALS
280
1
  9
$LATITUDE
 40
37.795
  9
$LONGITUDE
 40
-122.394
  9
$NORTHDIRECTION
 40
0.0
  9
$TIMEZONE
 70
-8000
  9
$LIGHTGLYPHDISPLAY
280
1
  9
$TILEMODELIGHTSYNCH
280
1
  9
$CMATERIAL
347
20
  9
$SOLIDHIST
280
0
  9
$SHOWHIST
280
1
  9
$DWFFRAME
280
2
  9
$DGNFRAME
280
2
  9
$REALWORLDSCALE
290
1
  9
$INTERFERECOLOR
 62
256
  9
$CSHADOW
280
0
  9
$SHADOWPLANELOCATION
 40
0.0
  0
ENDSEC
  0
SECTION
  2
CLASSES
  0
CLASS
  1
ACDBDICTIONARYWDFLT
  2
AcDbDictionaryWithDefault
  3
ObjectDBX Classes
 90
0
 91
0
280
0
281
0
  0
CLASS
  1
SUN
  2
AcDbSun
  3
SCENEOE
 90
1153
 91
0
280
0
281
0
  0
CLASS
  1
VISUALSTYLE
  2
AcDbVisualStyle
  3
ObjectDBX Classes
 90
4095
 91
0
280
0
281
0
  0
CLASS
  1
MATERIAL
  2
AcDbMaterial
  3
ObjectDBX Classes
 90
1153
 91
0
280
0
281
0
  0
CLASS
  1
SCALE
  2
AcDbScale
  3
ObjectDBX Classes
 90
1153
 91
0
280
0
281
0
  0
CLASS
  1
TABLESTYLE
  2
AcDbTableStyle
  3
ObjectDBX Classes
 90
4095
 91
0
280
0
281
0
  0
CLASS
  1
MLEADERSTYLE
  2
AcDbMLeaderStyle
  3
ACDB_MLEADERSTYLE_CLASS
 90
4095
 91
0
280
0
281
0
  0
CLASS
  1
DICTIONARYVAR
  2
AcDbDictionaryVar
  3
ObjectDBX Classes
 90
0
 91
0
280
0
281
0
  0
CLASS
  1
CELLSTYLEMAP
  2
AcDbCellStyleMap
  3
ObjectDBX Classes
 90
1152
 91
0
280
0
281
0
  0
CLASS
  1
MENTALRAYRENDERSETTINGS
  2
AcDbMentalRayRenderSettings
  3
SCENEOE
 90
1024
 91
0
280
0
281
0
  0
CLASS
  1
ACDBDETAILVIEWSTYLE
  2
AcDbDetailViewStyle
  3
ObjectDBX Classes
 90
1025
 91
0
280
0
281
0
  0
CLASS
  1
ACDBSECTIONVIEWSTYLE
  2
AcDbSectionViewStyle
  3
ObjectDBX Classes
 90
1025
 91
0
280
0
281
0
  0
CLASS
  1
RASTERVARIABLES
  2
AcDbRasterVariables
  3
ISM
 90
0
 91
0
280
0
281
0
  0
CLASS
  1
LAYOUT
  2
AcDbLayout
  3
ObjectDBX Classes
 90
0
 91
0
280
0
281
0
  0
CLASS
  1
ACDBPLACEHOLDER
  2
AcDbPlaceHolder
  3
ObjectDBX Classes
 90
0
 91
0
280
0
281
0
  0
ENDSEC
  0
SECTION
  2
TABLES
  0
TABLE
  2
VPORT
  5
8
330
0
100
AcDbSymbolTable
 70
1
  0
VPORT
  5
23
330
8
100
AcDbSymbolTableRecord
100
AcDbViewportTableRecord
  2
*Active
 70
0
 10
0.0
 20
0.0
 11
1.0
 21
1.0
 12
0.0
 22
0.0
 13
0.0
 23
0.0
 14
0.5
 24
0.5
 15
0.5
 25
0.5
 16
0.0
 26
0.0
 36
1.0
 17
0.0
 27
0.0
 37
0.0
 40
1000.0
 41
1.34
 42
50.0
 43
0.0
 44
0.0
 50
0.0
 51
0.0
 71
0
 72
1000
 73
1
 74
3
 75
0
 76
0
 77
0
 78
0
281
0
 65
0
146
0.0
  0
ENDTAB
  0
TABLE
  2
LTYPE
  5
2
330
0
100
AcDbSymbolTable
 70
3
  0
LTYPE
  5
24
330
2
100
AcDbSymbolTableRecord
100
AcDbLinetypeTableRecord
  2
ByBlock
 70
0
  3

 72
65
 73
0
 40
0.0
  0
LTYPE
  5
25
330
2
100
AcDbSymbolTableRecord
100
AcDbLinetypeTableRecord
  2
ByLayer
 70
0
  3

 72
65
 73
0
 40
0.0
  0
LTYPE
  5
26
330
2
100
AcDbSymbolTableRecord
100
AcDbLinetypeTableRecord
  2
Continuous
 70
0
  3

 72
65
 73
0
 40
0.0
  0
ENDTAB
  0
TABLE
  2
LAYER
  5
1
330
0
100
AcDbSymbolTable
 70
4
  0
LAYER
  5
27
330
1
100
AcDbSymbolTableRecord
100
AcDbLayerTableRecord
  2
0
 70
0
 62
7
  6
Continuous
370
-3
390
13
347
21
  0
LAYER
  5
28
330
1
100
AcDbSymbolTableRecord
100
AcDbLayerTableRecord
  2
Defpoints
 70
0
 62
7
  6
Continuous
290
0
370
-3
390
13
347
21
  0
LAYER
  5
2F
330
1
100
AcDbSymbolTableRecord
100
AcDbLayerTableRecord
  2
CONTOURS
 70
0
 62
3
  6
Continuous
370
-3
390
13
347
21
  0
LAYER
  5
30
330
1
100
AcDbSymbolTableRecord
100
AcDbLayerTableRecord
  2
LABELS
 70
0
 62
7
  6
Continuous
370
-3
390
13
347
21
  0
ENDTAB
  0
TABLE
  2
STYLE
  5
5
330
0
100
AcDbSymbolTable
 70
1
  0
STYLE
  5
29
330
5
100
AcDbSymbolTableRecord
100
AcDbTextStyleTableRecord
  2
Standard
 70
0
 40
0.0
 41
1.0
 50
0.0
 71
0
 42
2.5
  3
txt
  4

  0
ENDTAB
  0
TABLE
  2
VIEW
  5
7
330
0
100
AcDbSymbolTable
 70
0
  0
ENDTAB
  0
TABLE
  2
UCS
  5
6
330
0
100
AcDbSymbolTable
 70
0
  0
ENDTAB
  0
TABLE
  2
APPID
  5
3
330
0
100
AcDbSymbolTable
 70
3
  0
APPID
  5
2A
330
3
100
AcDbSymbolTableRecord
100
AcDbRegAppTableRecord
  2
ACAD
 70
0
  0
APPID
  5
B5
330
3
100
AcDbSymbolTableRecord
100
AcDbRegAppTableRecord
  2
HATCHBACKGROUNDCOLOR
 70
0
  0
APPID
  5
B6
330
3
100
AcDbSymbolTableRecord
100
AcDbRegAppTableRecord
  2
EZDXF
 70
0
  0
ENDTAB
  0
TABLE
  2
DIMSTYLE
  5
4
330
0
100
AcDbSymbolTable
 70
1
100
AcDbDimStyleTable
  0
DIMSTYLE
105
2B
330
4
100
AcDbSymbolTableRecord
100
AcDbDimStyleTableRecord
  2
Standard
 70
0
 40
1.0
 41
2.5
 42
0.625
 43
3.75
 44
1.25
 45
0.0
 46
0.0
 47
0.0
 48
0.0
 49
2.5
140
2.5
141
2.5
142
0.0
143
0.03937007874
144
1.0
145
0.0
146
1.0
147
0.625
148
0.0
 69
0
 70
0
 71
0
 72
0
 73
0
 74
0
 75
0
 76
0
 77
1
 78
8
 79
3
170
0
171
3
172
1
173
0
174
0
175
0
176
0
177
0
178
0
179
2
271
2
272
2
273
2
274
3
275
0
276
0
277
2
278
44
279
0
280
0
281
0
282
0
283
0
284
8
285
0
286
0
288
0
289
3
290
0
371
-2
372
-2
  0
ENDTAB
  0
TABLE
  2
BLOCK_RECORD
  5
9
330
0
100
AcDbSymbolTable
 70
2
  0
BLOCK_RECORD
  5
17
330
9
100
AcDbSymbolTableRecord
100
AcDbBlockTableRecord
  2
*Model_Space
340
1A
 70
0
280
1
281
0
  0
BLOCK_RECORD
  5
1B
330
9
100
AcDbSymbolTableRecord
100
AcDbBlockTableRecord
  2
*Paper_Space
340
1E
 70
0
280
1
281
0
  0
ENDTAB
  0
ENDSEC
  0
SECTION
  2
BLOCKS
  0
BLOCK
  5
18
330
17
100
AcDbEntity
  8
0
100
AcDbBlockBegin
  2
*Model_Space
 70
0
 10
0.0
 20
0.0
 30
0.0
  3
*Model_Space
  1

  0
ENDBLK
  5
19
330
17
100
AcDbEntity
  8
0
100
AcDbBlockEnd
  0
BLOCK
  5
1C
330
1B
100
AcDbEntity
  8
0
100
AcDbBlockBegin
  2
*Paper_Space
 70
0
 10
0.0
 20
0.0
 30
0.0
  3
*Paper_Space
  1

  0
ENDBLK
  5
1D
330
1B
100
AcDbEntity
  8
0
100
AcDbBlockEnd
  0
ENDSEC
  0
SECTION
  2
ENTITIES
  0
LWPOLYLINE
  5
31
330
17
100
AcDbEntity
  8
CONTOURS
100
AcDbPolyline
 90
13
 70
0
 10
347.00152811735944
 20
2.540782396088019
 10
351.30937500000005
 20
2.4857366071428566
 10
347.9647129186603
 20
2.6741866028708126
 10
309.0234134615385
 20
9.597427884615385
 10
307.51196460176993
 20
10.10005309734513
 10
311.1408287292818
 20
13.201933701657445
 10
312.1082627118644
 20
14.438749999999978
 10
314.3215
 20
15.823673913043455
 10
314.9773544093178
 20
15.264642262895155
 10
350.42397034596377
 20
9.29981878088961
 10
358.54999999999995
 20
8.254999999999987
 10
362.3522546419098
 20
3.4841909814323584
 10
362.3911213005419
 20
2.4591829929137137
  0
TEXT
  5
32
330
17
100
AcDbEntity
  8
LABELS
100
AcDbText
 10
312.1082627118644
 20
14.438749999999978
 30
0.0
 40
2.0
  1
102.0
100
AcDbText
  0
LWPOLYLINE
  5
33
330
17
100
AcDbEntity
  8
CONTOURS
100
AcDbPolyline
 90
13
 70
0
 10
327.38539119804403
 20
2.9613202933985323
 10
339.8986607142857
 20
2.8014253826530604
 10
330.1832137161085
 20
3.348827751196172
 10
298.02020833333336
 20
9.066979166666666
 10
293.4553274336283
 20
10.585008849557521
 10
304.4152302025783
 20
19.953314917127067
 10
307.33707627118645
 20
23.68874999999998
 10
314.0215
 20
27.871499999999994
 10
316.00231281198
 20
26.18311148086522
 10
337.3267710049423
 20
22.594711696869854
 10
360.93095238095236
 20
19.559761904761892
 10
371.9755968169761
 20
5.7016976127320955
 10
372.088495206336
 20
2.724293455606502
  0
TEXT
  5
34
330
17
100
AcDbEntity
  8
LABELS
100
AcDbText
 10
307.33707627118645
 20
23.68874999999998
 30
0.0
 40
2.0
  1
104.0
100
AcDbText
  0
LWPOLYLINE
  5
35
330
17
100
AcDbEntity
  8
CONTOURS
100
AcDbPolyline
 90
17
 70
0
 10
25.07044776119403
 20
236.08029850746271
 10
22.40785046728972
 20
240.27084112149532
 10
16.422784810126558
 20
253.08379746835442
 10
21.45816023738872
 20
264.82272997032646
 10
30.767032967032975
 20
266.358021978022
 10
46.03585106382978
 20
274.47372340425534
 10
58.296465753424684
 20
273.654191780822
 10
64.28779005524862
 20
268.9203314917128
 10
67.4586176836862
 20
260.0342465753425
 10
67.41976588628765
 20
256.74180602006686
 10
68.23898305084748
 20
255.20999999999998
 10
63.718292682926844
 20
243.6429268292683
 10
66.59387096774195
 20
233.2664516129032
 10
68.25090592334496
 20
224.3812543554007
 10
55.44204819277109
 20
218.49855421686738
 10
45.62701492537314
 20
231.63910447761194
 10
25.07044776119403
 20
236.08029850746271
  0
TEXT
  5
36
330
17
100
AcDbEntity
  8
LABELS
100
AcDbText
 10
67.4586176836862
 20
260.0342465753425
 30
0.0
 40
2.0
  1
104.0
100
AcDbText
  0
LWPOLYLINE
  5
37
330
17
100
AcDbEntity
  8
CONTOURS
100
AcDbPolyline
 90
19
 70
0
 10
307.7692542787286
 20
3.381858190709046
 10
328.48794642857143
 20
3.1171141581632646
 10
312.4017145135566
 20
4.02346889952153
 10
287.0170032051282
 20
8.536530448717947
 10
279.3986902654867
 20
11.069964601769913
 10
297.68963167587475
 20
26.704696132596695
 10
300.54802816901406
 20
30.359014084507052
 10
301.29399082568807
 20
31.83366972477064
 10
306.2113953488372
 20
33.9881395348837
 10
314.8227659574468
 20
38.980638297872346
 10
317.02727121464227
 20
37.101580698835285
 10
324.2295716639209
 20
35.8896046128501
 10
363.31190476190477
 20
30.86452380952381
 10
370.05691699604745
 20
22.401343873517792
 10
376.0437113402062
 20
18.458762886597963
 10
380.1203324099723
 20
10.761939058171748
 10
380.7591111111111
 20
7.679607843137255
 10
381.65515331355095
 20
6.43669634025717
 10
381.78586911213006
 20
2.989403918299291
  0
TEXT
  5
38
330
17
100
AcDbEntity
  8
LABELS
100
AcDbText
 10
314.8227659574468
 20
38.980638297872346
 30
0.0
 40
2.0
  1
106.0
100
AcDbText
  0
LWPOLYLINE
  5
39
330
17
100
AcDbEntity
  8
CONTOURS
100
AcDbPolyline
 90
28
 70
0
 10
5.681832760595647
 20
259.7916380297824
 10
5.737625000000008
 20
260.0506250000001
 10
8.154285714286006
 20
265.86952380952454
 10
18.888427299703267
 20
290.89394658753713
 10
24.513750000000055
 20
291.82171875
 10
39.217622950819674
 20
291.8350819672131
 10
40.96858823529412
 20
291.1491176470588
 10
58.66590361445782
 20
291.18192771084335
 10
70.29098630136987
 20
290.4048767123288
 10
71.20491712707182
 20
289.68276243093925
 10
79.40880448318808
 20
266.6917808219178
 10
79.30828316610928
 20
258.1732441471572
 10
81.42784503631964
 20
254.21
 10
78.1987804878049
 20
245.94780487804877
 10
85.86698924731182
 20
218.27720430107527
 10
89.09533707865168
 20
200.9664606741573
 10
86.93520361990952
 20
197.85298642533937
 10
81.793
 20
198.486
 10
65.50666666666669
 20
200.5433333333333
 10
53.76817351598173
 20
201.39465753424656
 10
51.877087378640766
 20
202.08621359223298
 10
31.16047337278114
 20
212.32420118343197
 10
29.9553731343284
 20
213.93761194029858
 10
28.521194029850736
 20
214.24746268656725
 10
21.420934579439255
 20
225.42224299065424
 10
5.948127853881319
 20
258.54675799086743
 10
5.66498714652956
 20
259.14539845758344
 10
5.681832760595647
 20
259.7916380297824
  0
TEXT
  5
3A
330
17
100
AcDbEntity
  8
LABELS
100
AcDbText
 10
85.86698924731182
 20
218.27720430107527
 30
0.0
 40
2.0
  1
106.0
100
AcDbText
  0
LWPOLYLINE
  5
3B
330
17
100
AcDbEntity
  8
CONTOURS
100
AcDbPolyline
 90
26
 70
0
 10
288.1531173594132
 20
3.8023960880195595
 10
317.07723214285716
 20
3.432802933673469
 10
294.6202153110048
 20
4.698110047846891
 10
276.0137980769231
 20
8.00608173076923
 10
269.08020497803807
 20
10.311815519765737
 10
270.07429487179485
 20
13.102564102564106
 10
276.69853333333333
 20
24.165466666666703
 10
278.723488372093
 20
25.9406976744186
 10
283.84839999999986
 20
30.279599999999903
 10
287.1019463087248
 20
32.99637583892618
 10
287.26440758293836
 20
33.01350710900475
 10
287.52277899343545
 20
33.27754923413569
 10
287.96858611825195
 20
33.347313624678684
 10
316.4140138408304
 20
46.4193194925029
 10
317.80756410256413
 20
47.22867521367523
 10
319.63932551319647
 20
48.26835777126101
 10
329.930814479638
 20
48.589909502262444
 10
357.4780303030303
 20
44.78227272727271
 10
360.62857142857143
 20
45.41214285714288
 10
367.5561188811189
 20
41.02178321678322
 10
371.72777777777776
 20
40.607777777777784
 10
376.98701030927833
 20
37.144329896907266
 10
387.43335180055396
 20
17.421218836565103
 10
389.07022222222224
 20
9.522745098039215
 10
391.36633036597425
 20
6.337784371909001
 10
391.4832430179241
 20
3.2545143809920796
  0
TEXT
  5
3C
330
17
100
AcDbEntity
  8
LABELS
100
AcDbText
 10
316.4140138408304
 20
46.4193194925029
 30
0.0
 40
2.0
  1
108.0
100
AcDbText
  0
LWPOLYLINE
  5
3D
330
17
100
AcDbEntity
  8
CONTOURS
100
AcDbPolyline
 90
33
 70
0
 10
5.773470790378007
 20
276.3735395189004
 10
8.618875000000006
 20
289.5818750000001
 10
13.541103678929762
 20
301.433745819398
 10
23.098132780082967
 20
302.29622406639004
 10
40.473407202216066
 20
306.0095290858726
 10
41.50889570552147
 20
304.6680674846626
 10
43.73593525179855
 20
303.5349640287769
 10
61.87761643835618
 20
303.62394520547946
 10
74.29413012729844
 20
304.3989533239038
 10
83.49062305295953
 20
294.2885358255452
 10
85.63693877551022
 20
289.3850793650794
 10
91.35899128268994
 20
273.3493150684932
 10
91.1968004459309
 20
259.60468227424747
 10
94.61670702179178
 20
253.21
 10
92.67926829268293
 20
248.25268292682927
 10
102.09577464788732
 20
214.2733802816901
 10
102.77048780487804
 20
209.69048780487805
 10
107.69988372093019
 20
206.45709302325582
 10
99.22643216080402
 20
199.6740703517588
 10
89.25692307692312
 20
187.77384615384614
 10
88.1429596412556
 20
187.38461883408067
 10
72.76289655172415
 20
184.41603448275856
 10
66.17536779324053
 20
187.68578528827032
 10
60.36693251533741
 20
188.60828220858895
 10
58.53434782608696
 20
190.49289855072465
 10
51.38917808219179
 20
191.01109589041096
 10
47.04213592233009
 20
192.6007766990291
 10
41.61580246913581
 20
195.2824279835391
 10
20.991500000000023
 20
209.69625000000002
 10
20.434018691588786
 20
210.57364485981313
 10
19.35452054794517
 20
212.88465753424668
 10
4.914344473007709
 20
243.41532133676088
 10
5.773470790378007
 20
276.3735395189004
  0
TEXT
  5
3E
330
17
100
AcDbEntity
  8
LABELS
100
AcDbText
 10
102.77048780487804
 20
209.69048780487805
 30
0.0
 40
2.0
  1
108.0
100
AcDbText
  0
LWPOLYLINE
  5
3F
330
17
100
AcDbEntity
  8
CONTOURS
100
AcDbPolyline
 90
8
 70
0
 10
186.76141935483867
 20
422.11135483870964
 10
184.31199999999998
 20
418.68000000000006
 10
183.8835616438356
 20
419.0249315068493
 10
179.38500000000005
 20
417.3040000000001
 10
179.21612903225815
 20
419.94709677419354
 10
175.3812631578948
 20
422.00989473684206
 10
184.80739726027397
 20
426.284109589041
 10
186.76141935483867
 20
422.11135483870964
  0
TEXT
  5
40
330
17
100
AcDbEntity
  8
LABELS
100
AcDbText
 10
179.21612903225815
 20
419.94709677419354
 30
0.0
 40
2.0
  1
108.0
100
AcDbText
  0
LWPOLYLINE
  5
41
330
17
100
AcDbEntity
  8
CONTOURS
100
AcDbPolyline
 90
30
 70
0
 10
268.5369804400978
 20
4.222933985330073
 10
305.6665178571429
 20
3.748491709183673
 10
276.83871610845296
 20
5.37275119617225
 10
265.01059294871794
 20
7.475633012820512
 10
260.6028989751098
 20
8.941390922401169
 10
262.7802425876011
 20
15.053935309973047
 10
263.0669275362319
 20
16.734637681159413
 10
267.7263708086785
 20
28.55165680473373
 10
267.8259241706161
 20
31.993033175355464
 10
272.9229753914989
 20
36.24917225950783
 10
276.69568720379146
 20
36.64699842022118
 10
282.6956455142232
 20
42.7786433260394
 10
293.04827763496144
 20
44.39872750642675
 10
314.09567474048447
 20
54.07099192618225
 10
318.3332051282051
 20
56.53209401709402
 10
323.9032551319648
 20
59.69357771260993
 10
332.21958333333345
 20
59.95341666666664
 10
344.6663650546022
 20
59.70422776911075
 10
351.6381240063593
 20
61.75384737678858
 10
356.7953676470588
 20
60.6611274509804
 10
372.09828947368425
 20
51.045789473684195
 10
374.90576923076924
 20
49.26653846153846
 10
375.45278145695363
 20
49.212251655629146
 10
384.2982051282051
 20
45.97307692307693
 10
384.4688483685221
 20
42.24750479846449
 10
387.56880239520956
 20
37.632035928143694
 10
394.7463711911357
 20
24.080498614958454
 10
397.3813333333333
 20
11.365882352941174
 10
401.07750741839766
 20
6.238872403560831
 10
401.1806169237183
 20
3.519624843684869
  0
TEXT
  5
42
330
17
100
AcDbEntity
  8
LABELS
100
AcDbText
 10
323.9032551319648
 20
59.69357771260993
 30
0.0
 40
2.0
  1
110.0
100
AcDbText
  0
LWPOLYLINE
  5
43
330
17
100
AcDbEntity
  8
CONTOURS
100
AcDbPolyline
 90
44
 70
0
 10
5.865108820160366
 20
292.95544100801834
 10
9.650506329113922
 20
310.5272151898734
 10
10.491420959147423
 20
310.10431616341026
 10
36.14100000000004
 20
317.413
 10
46.19085872576178
 20
319.56077562326874
 10
48.883128834355816
 20
316.0729754601226
 10
48.89420863309351
 20
316.06733812949636
 10
48.984465753424686
 20
316.0677808219177
 10
76.54306930693069
 20
317.7879207920792
 10
92.5382901554404
 20
300.20313471502595
 10
96.78652866242044
 20
297.03856687898093
 10
97.59157407407412
 20
292.747037037037
 10
99.02291666666673
 20
290.6229166666666
 10
101.71857142857145
 20
284.46444444444444
 10
103.30917808219179
 20
280.0068493150685
 10
103.08531772575255
 20
261.0361204013378
 10
107.80556900726394
 20
252.21
 10
107.15975609756097
 20
250.55756097560976
 10
110.29859154929576
 20
239.23112676056337
 10
113.42680709534369
 20
217.98317073170733
 10
117.56578082191781
 20
215.26824657534246
 10
123.81573170731707
 20
210.65612195121952
 10
126.92547169811323
 20
202.28490566037735
 10
129.24806451612906
 20
200.04437275985663
 10
127.665
 20
172.36999999999998
 10
129.5057142857143
 20
169.79714285714283
 10
134.00306451612903
 20
168.96943548387094
 10
139.22818897637796
 20
162.5123622047244
 10
135.88776223776227
 20
154.37643356643355
 10
132.24395683453236
 20
148.64482014388494
 10
121.77021978021979
 20
158.18395604395604
 10
97.16506566604129
 20
175.1144090056285
 10
83.56985074626863
 20
170.12567164179103
 10
81.19228699551569
 20
169.29493273542602
 10
80.39048275862069
 20
169.14017241379312
 10
57.12566600397612
 20
180.68777335984095
 10
49.230000000000004
 20
181.94176470588235
 10
46.163770491803284
 20
183.2543715846994
 10
43.69329376854599
 20
186.27261127596438
 10
40.81224006762468
 20
187.57655959425188
 10
18.105595432300166
 20
203.64291190864603
 10
14.535313059033996
 20
205.75669051878356
 10
4.1637017994858585
 20
227.68524421593824
 10
5.865108820160366
 20
292.95544100801834
  0
TEXT
  5
44
330
17
100
AcDbEntity
  8
LABELS
100
AcDbText
 10
126.92547169811323
 20
202.28490566037735
 30
0.0
 40
2.0
  1
110.0
100
AcDbText
  0
LWPOLYLINE
  5
45
330
17
100
AcDbEntity
  8
CONTOURS
100
AcDbPolyline
 90
25
 70
0
 10
144.49450467289716
 20
409.7163551401869
 10
144.41088888888885
 20
411.61992592592594
 10
141.82399463806968
 20
423.4677479892762
 10
146.3947544204322
 20
434.92457760314346
 10
160.52479166666663
 20
458.8258333333332
 10
163.88813253012054
 20
460.4459638554216
 10
165.75568807339465
 20
463.76256880733945
 10
181.49716666666666
 20
471.60808333333335
 10
197.70569086651054
 20
475.14173302107724
 10
202.6903539823009
 20
474.337168141593
 10
214.8335294117647
 20
452.6129411764705
 10
215.89308510638293
 20
448.7767021276596
 10
216.24202846975086
 20
447.7174911032029
 10
216.20137724550895
 20
444.5220359281438
 10
213.2806046511628
 20
425.0611162790698
 10
210.84415492957748
 20
413.7929577464789
 10
204.56899999999996
 20
406.017
 10
196.16453488372093
 20
399.82220930232563
 10
194.4861081081081
 20
400.79843243243243
 10
191.5798876404494
 20
399.7139325842697
 10
187.486
 20
393.57840000000004
 10
177.01486486486488
 20
390.0632432432433
 10
158.77637168141595
 20
387.7173451327434
 10
146.33647058823527
 20
404.6170588235293
 10
144.49450467289716
 20
409.7163551401869
  0
TEXT
  5
46
330
17
100
AcDbEntity
  8
LABELS
100
AcDbText
 10
216.24202846975086
 20
447.7174911032029
 30
0.0
 40
2.0
  1
110.0
100
AcDbText
  0
LWPOLYLINE
  5
47
330
17
100
AcDbEntity
  8
CONTOURS
100
AcDbPolyline
 90
14
 70
0
 10
474.0213719512195
 20
192.69487804878048
 10
469.9120289855073
 20
200.2791304347826
 10
469.95198675496687
 20
200.48807947019867
 10
470.7117073170732
 20
201.5126829268293
 10
482.73408602150533
 20
212.46494623655917
 10
490.0843820224719
 20
217.85348314606745
 10
492.89
 20
217.36642857142863
 10
494.92028571428574
 20
159.69657142857076
 10
495.0397643097643
 20
155.69346801346805
 10
494.8801075268817
 20
155.73623655913983
 10
494.7602985074627
 20
155.78283582089557
 10
484.61971830985914
 20
161.5846478873239
 10
481.4081509433962
 20
169.59339622641505
 10
474.0213719512195
 20
192.69487804878048
  0
TEXT
  5
48
330
17
100
AcDbEntity
  8
LABELS
100
AcDbText
 10
494.92028571428574
 20
159.69657142857076
 30
0.0
 40
2.0
  1
110.0
100
AcDbText
  0
LWPOLYLINE
  5
49
330
17
100
AcDbEntity
  8
CONTOURS
100
AcDbPolyline
 90
32
 70
0
 10
248.9208435207824
 20
4.643471882640587
 10
294.2558035714286
 20
4.064180484693877
 10
259.05721690590104
 20
6.0473923444976085
 10
254.0073878205128
 20
6.945184294871794
 10
252.1255929721815
 20
7.570966325036599
 10
253.0551752021563
 20
10.180619946091637
 10
255.94808695652176
 20
27.140434782608683
 10
257.72242603550296
 20
31.640414201183425
 10
257.9301895734597
 20
38.82241706161139
 10
258.7440044742729
 20
39.50196868008949
 10
266.1269668246445
 20
40.280489731437605
 10
277.86851203501095
 20
52.279737417943124
 10
298.127969151671
 20
55.45014138817483
 10
311.7773356401384
 20
61.72266435986161
 10
317.9318796992481
 20
65.29714285714284
 10
318.5279057591623
 20
65.80570680628271
 10
321.9668565815324
 20
68.22025540275047
 10
329.0267562380038
 20
69.54497120921303
 10
342.5790015600624
 20
69.27365054602183
 10
347.0785055643879
 20
70.59645468998411
 10
368.10419117647064
 20
66.14151960784314
 10
375.8109638554217
 20
61.29909638554214
 10
381.1379701492537
 20
63.15874626865674
 10
389.36298734177217
 20
52.39949367088607
 10
394.3384981684982
 20
50.57747252747252
 10
394.75291746641074
 20
41.529654510556625
 10
401.91122994652403
 20
30.871764705882363
 10
402.1567621776504
 20
30.421633237822345
 10
402.5920930232558
 20
28.169302325581345
 10
405.6924444444444
 20
13.209019607843134
 10
410.78868447082095
 20
6.139960435212661
 10
410.8779908295123
 20
3.784735306377657
  0
TEXT
  5
4A
330
17
100
AcDbEntity
  8
LABELS
100
AcDbText
 10
321.9668565815324
 20
68.22025540275047
 30
0.0
 40
2.0
  1
112.0
100
AcDbText
  0
LWPOLYLINE
  5
4B
330
17
100
AcDbEntity
  8
CONTOURS
100
AcDbPolyline
 90
19
 70
0
 10
495.25805343511456
 20
164.44164122137408
 10
496.0161952861953
 20
139.0402693602694
 10
483.30837837837834
 20
142.44441441441444
 10
480.40234042553186
 20
143.17893617021278
 10
476.28
 20
144.82015544041448
 10
473.3955075593952
 20
147.60870410367167
 10
470.3066055045871
 20
150.3577981651376
 10
456.32080428954424
 20
197.96868632707776
 10
456.3770667613636
 20
198.63982244318183
 10
456.3830177514793
 20
199.05656804733724
 10
457.59720000000004
 20
204.7168
 10
464.1416384180791
 20
211.94112994350286
 10
470.4068292682927
 20
220.39073170731712
 10
474.82010752688177
 20
224.41118279569895
 10
479.60837455830386
 20
227.9214840989399
 10
483.4105050505051
 20
235.67681818181816
 10
489.7056144578313
 20
233.1326746987952
 10
493.1422631094756
 20
231.31005519779208
 10
495.25805343511456
 20
164.44164122137408
  0
TEXT
  5
4C
330
17
100
AcDbEntity
  8
LABELS
100
AcDbText
 10
456.3830177514793
 20
199.05656804733724
 30
0.0
 40
2.0
  1
112.0
100
AcDbText
  0
LWPOLYLINE
  5
4D
330
17
100
AcDbEntity
  8
CONTOURS
100
AcDbPolyline
 90
33
 70
0
 10
179.24208556149745
 20
479.83502673796795
 10
208.67524590163936
 20
486.2518032786885
 10
216.605223880597
 20
484.97184079601993
 10
217.80919191919196
 20
484.62000000000006
 10
222.4804158415842
 20
478.7410297029703
 10
229.16056231003034
 20
454.5548176291793
 10
232.83277580071172
 20
443.40788256227756
 10
232.55369620253168
 20
421.4703797468355
 10
231.6966472303207
 20
417.2912536443149
 10
231.03208695652177
 20
416.15008695652176
 10
227.96863636363636
 20
413.19238636363633
 10
219.01682608695654
 20
402.0996086956522
 10
214.57944444444445
 20
398.82888888888886
 10
212.35067669172935
 20
394.2291729323308
 10
201.99496503496505
 20
378.1885314685315
 10
190.4132631578948
 20
370.10273684210523
 10
185.5480536912752
 20
367.5769127516778
 10
184.4019867549669
 20
367.1459602649006
 10
143.71733590733587
 20
359.31845559845556
 10
143.33979094076656
 20
359.07609756097565
 10
142.8292307692308
 20
358.96565217391304
 10
141.89064516129037
 20
358.045806451613
 10
140.749864864865
 20
358.8858783783784
 10
142.25532374100726
 20
359.83942446043164
 10
142.16732484076437
 20
360.03449044585983
 10
126.75992523364485
 20
402.6883177570094
 10
126.03311111111108
 20
419.23474074074073
 10
125.56662198391417
 20
421.3712332439678
 10
137.22383104125734
 20
450.5905893909627
 10
145.0023287671233
 20
463.7480821917808
 10
154.67606205250598
 20
472.5730787589498
 10
160.90624999999997
 20
476.24187500000005
 10
179.24208556149745
 20
479.83502673796795
  0
TEXT
  5
4E
330
17
100
AcDbEntity
  8
LABELS
100
AcDbText
 10
185.5480536912752
 20
367.5769127516778
 30
0.0
 40
2.0
  1
112.0
100
AcDbText
  0
LWPOLYLINE
  5
4F
330
17
100
AcDbEntity
  8
CONTOURS
100
AcDbPolyline
 90
55
 70
0
 10
5.956746849942727
 20
309.5373424971363
 10
8.12790235081374
 20
319.6158227848101
 10
10.970994671403197
 20
318.1860213143872
 10
34.04817155756209
 20
324.76171557562077
 10
40.82191082802547
 20
327.7974522292993
 10
44.9688679245283
 20
327.9823899371069
 10
61.16906077348065
 20
331.2283977900553
 10
63.50163727959695
 20
329.28304785894204
 10
67.23730994152042
 20
330.45567251461983
 10
78.79200848656295
 20
331.17688826025454
 10
85.46056994818655
 20
323.84562176165804
 10
109.4680573248408
 20
305.9621337579618
 10
112.39785714285715
 20
290.3439795918367
 10
113.50699088145895
 20
283.5315501519757
 10
113.17235668789807
 20
280.68057324840765
 10
113.68079051383401
 20
275.75395256916994
 10
114.4410062893082
 20
263.40723270440253
 10
116.73913043478262
 20
259.0317391304348
 10
121.22739726027396
 20
251.0278082191781
 10
122.40781249999999
 20
235.05375
 10
123.96750000000002
 20
226.6450000000001
 10
124.25800000000007
 20
226.20780000000002
 10
125.34644444444467
 20
225.33666666666656
 10
137.645
 20
216.26100000000002
 10
140.25271739130434
 20
209.24119565217399
 10
143.52052083333336
 20
201.1394791666667
 10
148.6974647887324
 20
191.28633802816904
 10
149.9872727272727
 20
189.68272727272728
 10
150.70787878787877
 20
186.66151515151512
 10
152.35871681415927
 20
181.67384955752212
 10
157.5193464052288
 20
167.85993464052285
 10
158.0322666666667
 20
167.25266666666667
 10
157.75253731343287
 20
166.24283582089555
 10
162.67956521739134
 20
141.4732608695652
 10
163.45
 20
124.64285714285715
 10
161.015
 20
122.15329545454546
 10
158.20838565022422
 20
121.63582959641256
 10
139.5778048780488
 20
126.129756097561
 10
137.8968686868687
 20
128.2988888888889
 10
124.1887714987715
 20
136.82700245700244
 10
109.82882783882783
 20
149.90556776556775
 10
95.54030018761726
 20
159.73729831144462
 10
85.87163090128756
 20
156.1893991416309
 10
77.8022
 20
162.9864
 10
71.86003149606299
 20
166.1808188976378
 10
50.80070422535204
 20
172.33732394366197
 10
48.07596421471171
 20
173.6897614314115
 10
47.230000000000004
 20
173.8241176470588
 10
46.901475409836074
 20
173.96475409836063
 10
40.95145400593472
 20
181.2340356083086
 10
34.01257819103972
 20
184.37453085376163
 10
15.668401305057099
 20
197.35416802610115
 10
8.238354203935593
 20
201.75311270125223
 10
3.4130591259640077
 20
211.95516709511566
 10
5.956746849942727
 20
309.5373424971363
  0
TEXT
  5
50
330
17
100
AcDbEntity
  8
LABELS
100
AcDbText
 10
149.9872727272727
 20
189.68272727272728
 30
0.0
 40
2.0
  1
112.0
100
AcDbText
  0
LWPOLYLINE
  5
51
330
17
100
AcDbEntity
  8
CONTOURS
100
AcDbPolyline
 90
92
 70
0
 10
2.7982108626198086
 20
204.43170926517584
 10
3.668631578947383
 20
234.8260000000006
 10
6.048384879725086
 20
326.1192439862543
 10
6.605298372513561
 20
328.70443037974684
 10
11.45056838365897
 20
326.2677264653641
 10
17.984966139954896
 20
328.12966139954847
 10
33.01936305732484
 20
334.8675159235669
 10
42.223584905660374
 20
335.2779874213836
 10
77.72153284671538
 20
342.39065693430655
 10
77.94921568627453
 20
342.457091503268
 10
78.14476635514016
 20
342.7792523364485
 10
82.94910780669143
 20
350.3721933085501
 10
118.06827338129503
 20
372.61640287769785
 10
114.46031847133764
 20
380.61410828025475
 10
109.02534579439254
 20
395.66028037383177
 10
108.66818867924529
 20
403.79120754716985
 10
115.49943005181346
 20
423.59891191709846
 10
112.7813432835821
 20
427.9649253731343
 10
116.70628482972135
 20
433.8005263157895
 10
127.05342245989303
 20
462.862192513369
 10
127.60815789473682
 20
464.69921052631577
 10
135.30333333333334
 20
472.19740740740747
 10
147.32045346062054
 20
483.1601909307876
 10
148.22569444444446
 20
483.69326388888885
 10
169.60069306930706
 20
487.88198019801985
 10
205.51943914081141
 20
494.1373031026253
 10
221.205616224649
 20
493.6201404056162
 10
221.59703336339044
 20
493.55300270513976
 10
225.13154676258995
 20
492.4061510791367
 10
228.30498371335506
 20
486.66495114006517
 10
238.80516831683167
 20
473.4499405940594
 10
242.42803951367773
 20
460.3329331306991
 10
249.4235231316726
 20
439.0982740213523
 10
249.30812658227853
 20
430.0273417721519
 10
245.2768221574344
 20
410.3699708454811
 10
242.15092753623193
 20
405.00226086956525
 10
236.7746153846154
 20
399.8115384615385
 10
236.17303797468355
 20
386.3858227848101
 10
224.48072463768116
 20
370.4185507246377
 10
209.3210606060606
 20
363.4421212121212
 10
201.49740740740742
 20
359.77611111111116
 10
192.58161073825505
 20
355.1473825503356
 10
186.66026490066224
 20
352.9207947019868
 10
178.01077220077212
 20
351.25667953667954
 10
162.53142857142862
 20
341.32
 10
141.59846153846155
 20
336.79173913043473
 10
129.0954285714286
 20
324.5383428571429
 10
130.8975925925926
 20
311.3038888888889
 10
131.565
 20
309.69666666666666
 10
130.5606629834254
 20
308.522044198895
 10
129.77741379310345
 20
306.42655172413794
 10
124.37376623376628
 20
296.9057142857142
 10
126.15136778115502
 20
285.9874772036474
 10
124.99744186046513
 20
276.15639534883724
 10
129.91185185185182
 20
258.5270370370371
 10
134.88219178082187
 20
249.66342465753425
 10
135.296582278481
 20
244.05565400843878
 10
143.0410144927536
 20
232.05623188405812
 10
143.45916844349685
 20
231.1305756929638
 10
143.5973214285715
 20
230.8698214285714
 10
149.34036939313984
 20
220.05300791556726
 10
156.33132653061222
 20
211.97479591836736
 10
157.44413194444442
 20
209.21586805555555
 10
158.67299539170506
 20
206.8770046082949
 10
159.77807692307692
 20
204.6690384615384
 10
166.50464220183486
 20
188.22919266055047
 10
174.03507614213197
 20
180.89680203045688
 10
169.41877637130796
 20
178.11004219409284
 10
171.646064516129
 20
169.67348387096774
 10
181.19690476190476
 20
145.45928571428567
 10
185.39747697974215
 20
134.59421731123388
 10
183.66714285714284
 20
131.91192546583852
 10
178.7293548387097
 20
116.62000000000012
 10
176.74973154362414
 20
112.92577181208055
 10
160.86233100233102
 20
109.99139860139859
 10
141.04054421768706
 20
110.83707482993199
 10
140.86700598802398
 20
110.9359880239521
 10
136.67666666666665
 20
116.34333333333336
 10
101.87918918918916
 20
137.99162162162162
 10
97.88743589743588
 20
141.62717948717946
 10
93.91553470919325
 20
144.36018761726075
 10
91.22785407725324
 20
143.37394849785406
 10
74.61934285714287
 20
157.36354285714287
 10
62.389165354330686
 20
163.93829921259845
 10
48.55398104265404
 20
167.98289099526065
 10
46.795914786967415
 20
167.99345864661655
 10
42.839674418604645
 20
170.5388062015504
 10
38.20961424332344
 20
176.19545994065282
 10
27.21291631445477
 20
181.17250211327132
 10
13.23120717781403
 20
191.0654241435563
 10
2.863688155922041
 20
197.2034932533733
 10
2.7565592635212885
 20
197.2086075949367
  0
TEXT
  5
52
330
17
100
AcDbEntity
  8
LABELS
100
AcDbText
 10
129.0954285714286
 20
324.5383428571429
 30
0.0
 40
2.0
  1
114.0
100
AcDbText
  0
LWPOLYLINE
  5
53
330
17
100
AcDbEntity
  8
CONTOURS
100
AcDbPolyline
 90
34
 70
0
 10
229.30470660146693
 20
5.064009779951101
 10
282.8450892857143
 20
4.379869260204081
 10
243.98272582359192
 20
6.5695111583421895
 10
243.17270270270268
 20
10.439324324324366
 10
246.21725806451613
 20
30.41653225806452
 10
247.3934375
 20
36.93624999999999
 10
253.64366336633663
 20
41.781287128712904
 10
254.51709677419356
 20
43.80419354838711
 10
255.5582464454976
 20
43.91398104265404
 10
273.0413785557987
 20
61.78083150984684
 10
303.20766066838047
 20
66.5015552699229
 10
309.4589965397924
 20
69.37433679354096
 10
312.27774436090226
 20
71.01142857142858
 10
316.84727748691097
 20
74.91041884816755
 10
318.33227897838896
 20
75.95306483300588
 10
334.38568138195774
 20
78.96531669865641
 10
340.4916380655226
 20
78.84307332293291
 10
342.51888712241646
 20
79.43906200317964
 10
366.5412669683259
 20
74.34918552036196
 10
377.48405405405407
 20
76.49329729729723
 10
384.08230769230767
 20
78.7026373626374
 10
387.8623076923077
 20
75.16188811188813
 10
402.776
 20
57.14200000000005
 10
404.2338734177215
 20
55.23493670886076
 10
404.3787912087912
 20
55.18186813186813
 10
404.5312
 20
51.85439999999987
 10
405.2802222222222
 20
41.27301851851852
 10
405.3476125244618
 20
39.983542074364
 10
412.7155014326647
 20
26.47607449856733
 10
415.0589770992366
 20
14.351312977099235
 10
414.6093936279548
 20
13.503093525179857
 10
415.83904534606205
 20
12.506125696101833
 10
420.49986152324436
 20
6.04104846686449
 10
420.57536473530644
 20
4.049845769070446
  0
TEXT
  5
54
330
17
100
AcDbEntity
  8
LABELS
100
AcDbText
 10
342.51888712241646
 20
79.43906200317964
 30
0.0
 40
2.0
  1
114.0
100
AcDbText
  0
LWPOLYLINE
  5
55
330
17
100
AcDbEntity
  8
CONTOURS
100
AcDbPolyline
 90
20
 70
0
 10
496.1508108108108
 20
125.19986486486486
 10
494.6375690607735
 20
124.92165745856354
 10
486.3743438914027
 20
127.36235294117648
 10
475.10068062827224
 20
129.77738219895286
 10
468.82444444444445
 20
132.83
 10
462.9117062634989
 20
138.54606911447087
 10
450.73779816513763
 20
149.38073394495413
 10
444.3529758713137
 20
171.1161394101877
 10
446.6597372159091
 20
198.63272017045452
 10
446.85503631961257
 20
212.3094430992736
 10
447.17151387720776
 20
212.9022708158116
 10
447.4289230769231
 20
213.88653846153846
 10
448.8114772727273
 20
216.30261363636365
 10
466.10349999999994
 20
234.7861
 10
479.4063636363636
 20
242.0563636363636
 10
483.9775576036866
 20
245.93483870967742
 10
485.6285060240964
 20
245.26761445783131
 10
493.1809015639375
 20
241.26221711131555
 10
496.0778181818182
 20
149.70672727272722
 10
496.42270186335406
 20
141.84428571428566
  0
TEXT
  5
56
330
17
100
AcDbEntity
  8
LABELS
100
AcDbText
 10
447.17151387720776
 20
212.9022708158116
 30
0.0
 40
2.0
  1
114.0
100
AcDbText
  0
LWPOLYLINE
  5
57
330
17
100
AcDbEntity
  8
CONTOURS
100
AcDbPolyline
 90
95
 70
0
 10
3.0921405750798723
 20
251.82947284345056
 10
5.912428694900605
 20
350.3113396715644
 10
6.2503
 20
340.8204352941176
 10
6.6145503355704705
 20
338.562322147651
 10
9.277637795275592
 20
338.94700787401575
 10
17.25866666666667
 20
340.1433846153846
 10
18.886918918918905
 20
339.1007567567567
 10
25.216815286624204
 20
341.9375796178344
 10
39.47830188679245
 20
342.57358490566037
 10
48.87481751824818
 20
344.4563503649635
 10
71.8707843137255
 20
351.16624183006536
 10
91.62140186915884
 20
383.7044859813083
 10
91.89334572490705
 20
384.1342750929368
 10
93.8812230215828
 20
385.393381294964
 10
93.23737864077674
 20
386.8205825242719
 10
95.65076086956523
 20
393.38886956521736
 10
98.93687898089172
 20
403.1499363057324
 10
107.1781865284974
 20
427.04623488773746
 10
103.82993569131834
 20
432.4244694533762
 10
109.3548828125
 20
445.4459765625
 10
109.49810810810811
 20
447.67502384737685
 10
114.8154819277108
 20
463.1490963855421
 10
115.49894890510946
 20
467.38370802919707
 10
133.58501915708814
 20
486.28079182630904
 10
132.3733107191316
 20
488.3160379918589
 10
174.32373508353217
 20
495.62178997613364
 10
236.8343213728549
 20
493.56085803432137
 10
238.39414788097386
 20
493.29330928764654
 10
241.25025179856118
 20
492.36658273381295
 10
253.49065146579798
 20
470.22195439739414
 10
255.12992079207916
 20
468.15885148514855
 10
255.69551671732518
 20
466.11104863221885
 10
259.2946875
 20
455.18583333333333
 10
264.51925301204824
 20
437.6082168674699
 10
265.0495246478873
 20
436.2957922535211
 10
264.5213247863248
 20
427.3285042735043
 10
261.9108510638298
 20
416.7406382978721
 10
259.72863013698634
 20
405.76184931506845
 10
260.26423423423427
 20
403.1894594594595
 10
260.4382191780822
 20
391.41438356164383
 10
257.42473684210523
 20
380.3178947368421
 10
253.34492537313434
 20
372.27223880597023
 10
246.86800539083558
 20
361.9911590296496
 10
242.45796208530805
 20
361.0754502369668
 10
216.9618224299066
 20
349.3396261682243
 10
197.8820318725099
 20
341.12832669322705
 10
190.41272727272724
 20
337.67818181818177
 10
187.199963099631
 20
336.48952029520296
 10
178.5288888888889
 20
329.9949794238683
 10
174.10857142857142
 20
321.36049689440995
 10
165.8115730337077
 20
316.7206741573034
 10
158.28898305084743
 20
314.1466101694915
 10
156.47876288659793
 20
311.59020618556707
 10
147.28441988950274
 20
300.83696132596685
 10
143.38
 20
290.3911382113821
 10
147.8444444444445
 20
280.5894017094017
 10
154.10523985239848
 20
260.2491512915129
 10
147.47809426229506
 20
253.87860655737705
 10
148.13887499999996
 20
248.23787499999997
 10
152.91759061833687
 20
237.6593603411514
 10
159.96339285714282
 20
224.36089285714286
 10
160.48548812664907
 20
223.37754617414248
 10
161.42732240437155
 20
222.2892349726776
 10
173.99442159383028
 20
205.77390745501287
 10
179.11748623853208
 20
193.2530458715596
 10
187.21344827586205
 20
185.37
 10
188.85760942760942
 20
182.88171717171713
 10
191.31016701461374
 20
178.82125260960336
 10
193.94118131868123
 20
169.35510989011
 10
188.7197066666666
 20
163.0149333333334
 10
199.74738489871083
 20
134.49108655616942
 10
195.47382198952877
 20
127.86638743455498
 10
195.30747572815534
 20
116.0797572815534
 10
194.75590163934424
 20
106.67232786885246
 10
186.2651138716356
 20
97.52078674948243
 10
164.01757142857144
 20
96.3267142857143
 10
158.3401864801865
 20
95.2781118881119
 10
152.09496598639456
 20
95.54455782312928
 10
141.59795275590542
 20
101.52763779527565
 10
136.3060146252285
 20
104.47917733089584
 10
134.23295264623957
 20
105.2164902506964
 10
131.90970251716251
 20
107.4899542334096
 10
92.21931428571428
 20
133.9065714285714
 10
89.70185696361354
 20
136.24853199498116
 10
88.7123982869379
 20
137.18892933618844
 10
71.43648571428571
 20
151.74068571428572
 10
52.918299212598406
 20
161.69577952755904
 10
50.33123222748816
 20
162.45208530805684
 10
46.575363408521305
 20
162.47466165413536
 10
38.1233953488372
 20
167.9124496124031
 10
35.467774480712166
 20
171.15688427299702
 10
20.413254437869814
 20
177.97047337278107
 10
10.794013050570962
 20
184.7766802610114
 10
3.6612893553223405
 20
188.99959520239878
 10
2.730092059838895
 20
189.0440506329114
  0
TEXT
  5
58
330
17
100
AcDbEntity
  8
LABELS
100
AcDbText
 10
187.199963099631
 20
336.48952029520296
 30
0.0
 40
2.0
  1
116.0
100
AcDbText
  0
LWPOLYLINE
  5
59
330
17
100
AcDbEntity
  8
CONTOURS
100
AcDbPolyline
 90
41
 70
0
 10
209.68856968215155
 20
5.484547677261614
 10
271.43437500000005
 20
4.695558035714285
 10
236.81694473963867
 20
6.646025504782147
 10
233.35256024096384
 20
23.196813253012042
 10
232.397225433526
 20
24.227965317919093
 10
233.3063
 20
27.803900000000095
 10
236.5452232142857
 20
45.757678571428585
 10
240.5853314121037
 20
48.88948126801154
 10
252.18396610169492
 20
62.612237288135624
 10
261.423950177936
 20
64.34259786476872
 10
268.2142450765864
 20
71.28192560175056
 10
297.9674999999999
 20
75.93801470588235
 10
305.6993781094527
 20
76.9797512437811
 10
305.75411042944785
 20
77.26257668711656
 10
311.8713411078717
 20
83.08527696793004
 10
316.322
 20
83.63133333333334
 10
336.9624137931034
 20
87.5848275862069
 10
338.1683243243243
 20
87.87443243243243
 10
339.4529515418502
 20
88.51643171806167
 10
377.48991631799163
 20
93.98267782426777
 10
379.4073333333333
 20
95.17066666666665
 10
384.6644303797468
 20
96.33772151898734
 10
388.9023636363636
 20
94.95563636363636
 10
390.0995953757225
 20
91.4893641618497
 10
386.63878048780487
 20
90.45121951219512
 10
392.173076923077
 20
84.84076923076918
 10
396.093076923077
 20
81.16888111888115
 10
398.4393805309735
 20
78.33389380530978
 10
412.48555555555527
 20
69.73888888888914
 10
414.5574285714286
 20
68.66085714285721
 10
414.59290697674425
 20
68.13825581395348
 10
415.1647191011235
 20
58.37895131086142
 10
417.51036893203883
 20
54.08819417475728
 10
418.1246666666667
 20
45.41005555555556
 10
418.9014285714286
 20
30.547142857142866
 10
423.274240687679
 20
22.53051575931232
 10
424.6650839694656
 20
15.334519083969465
 10
423.66386433710176
 20
13.445539568345325
 10
426.4022911694511
 20
11.22529832935561
 10
430.2110385756677
 20
5.942136498516321
 10
430.27273864110043
 20
4.314956231763235
  0
TEXT
  5
5A
330
17
100
AcDbEntity
  8
LABELS
100
AcDbText
 10
379.4073333333333
 20
95.17066666666665
 30
0.0
 40
2.0
  1
116.0
100
AcDbText
  0
LWPOLYLINE
  5
5B
330
17
100
AcDbEntity
  8
CONTOURS
100
AcDbPolyline
 90
27
 70
0
 10
495.52378378378376
 20
113.90436936936938
 10
491.12817679558015
 20
113.09624309392265
 10
475.8719298245614
 20
117.60245614035087
 10
472.8166086956521
 20
118.1575652173913
 10
452.92853383458646
 20
129.1983458646617
 10
452.58004739336496
 20
129.1166350710901
 10
452.52963963963964
 20
129.20909909909915
 10
429.79168888888887
 20
145.1797777777778
 10
428.57516923076923
 20
145.9551076923077
 10
428.7279408960915
 20
146.63245948522402
 10
428.85542124542127
 20
146.82619047619045
 10
428.885568743818
 20
146.98163204747772
 10
432.8749951690822
 20
150.10682125603861
 10
436.94240767045454
 20
198.62561789772724
 10
437.1052380952381
 20
210.0285714285714
 10
439.17992430613964
 20
213.9148864592094
 10
440.8673846153846
 20
220.3673076923077
 10
449.93079545454543
 20
236.20602272727277
 10
456.2785
 20
242.99110000000002
 10
465.32671641791046
 20
247.93611940298507
 10
473.90075975359343
 20
249.93720739219714
 10
481.5120444444444
 20
254.89164444444444
 10
484.7467272727273
 20
256.40181818181816
 10
486.61107142857145
 20
254.71916666666664
 10
493.21954001839924
 20
251.214379024839
 10
495.3117575757576
 20
185.09096969696964
 10
496.313562555457
 20
162.2524489795918
  0
TEXT
  5
5C
330
17
100
AcDbEntity
  8
LABELS
100
AcDbText
 10
436.94240767045454
 20
198.62561789772724
 30
0.0
 40
2.0
  1
116.0
100
AcDbText
  0
LWPOLYLINE
  5
5D
330
17
100
AcDbEntity
  8
CONTOURS
100
AcDbPolyline
 90
99
 70
0
 10
3.386070287539936
 20
299.2272364217253
 10
5.656594641313743
 20
378.51185825410545
 10
6.5103
 20
354.53102352941175
 10
7.4306577181208056
 20
348.8254093959731
 10
14.159527559055112
 20
349.7974015748032
 10
22.36763636363636
 20
351.02781818181813
 10
24.79999999999999
 20
350.47999999999996
 10
30.22877551020411
 20
350.6987755102041
 10
46.41236686390535
 20
354.2205917159763
 10
65.79235294117646
 20
359.87539215686274
 10
76.83261306532663
 20
378.06371859296485
 10
86.20546218487395
 20
393.29557422969185
 10
87.49858695652173
 20
396.8149565217391
 10
98.00694267515925
 20
428.0289171974522
 10
98.85694300518138
 20
430.4935578583765
 10
98.51160771704181
 20
431.04826366559485
 10
99.08144531250002
 20
432.3912890625
 10
100.0927027027027
 20
448.1297138314785
 10
103.62572289156623
 20
458.41114457831316
 10
106.31938686131386
 20
475.10049635036495
 10
118.54287356321841
 20
487.87210727969347
 10
115.87127544097692
 20
492.3594572591587
 10
143.12803102625293
 20
497.106276849642
 10
252.4630265210608
 20
493.50157566302653
 10
255.19126239855726
 20
493.0336158701533
 10
257.36895683453236
 20
492.3270143884892
 10
268.4686086956521
 20
472.2461614906832
 10
268.29191986644406
 20
468.9378964941569
 10
267.6479930795847
 20
464.7773010380623
 10
271.884921630094
 20
456.84304075235116
 10
276.04214457831324
 20
442.85640963855417
 10
278.3699471830986
 20
437.095088028169
 10
276.43185628742515
 20
404.1919760479042
 10
277.3813004484305
 20
402.04322869955155
 10
276.11396825396827
 20
399.67603174603175
 10
275.3305952380952
 20
394.2369047619047
 10
276.5093827160494
 20
389.08160493827177
 10
280.9645689655173
 20
374.1715517241379
 10
283.03905555555554
 20
368.16177777777784
 10
275.2421857923497
 20
349.80065573770503
 10
263.22325
 20
348.4901250000001
 10
259.76191860465116
 20
346.93848837209305
 10
253.68600000000004
 20
349.27600000000007
 10
250.4313477088949
 20
344.10975741239895
 10
238.67123222748816
 20
341.6678672985782
 10
230.05995327102806
 20
337.70411214953265
 10
208.15694915254244
 20
328.2777966101695
 10
191.78464285714284
 20
317.6555357142857
 10
183.9125102880658
 20
304.1521399176955
 10
181.97824427480916
 20
301.9720610687024
 10
180.21521739130438
 20
297.5521739130435
 10
174.34444444444443
 20
273.24
 10
168.94396313364055
 20
269.796866359447
 10
159.56415983606556
 20
260.7802459016393
 10
161.20387499999995
 20
246.78287500000002
 10
162.37601279317695
 20
244.188144989339
 10
164.42857142857142
 20
240.314081632653
 10
173.26691176470584
 20
238.5004411764706
 10
189.3601941747572
 20
202.05757281553403
 10
191.1409511568123
 20
199.71735218509
 10
191.73033027522933
 20
198.2768990825688
 10
192.66172413793103
 20
197.36999999999998
 10
192.8508754208754
 20
197.08373737373734
 10
202.2120459290188
 20
181.58534446764094
 10
212.2543681318681
 20
145.45401098901107
 10
210.59703999999994
 20
143.44160000000005
 10
214.09729281767954
 20
134.38795580110497
 10
212.74083769633503
 20
132.28523560209422
 10
212.53738636363633
 20
117.86948863636357
 10
214.8540482573726
 20
103.73742627345845
 10
216.4379331306991
 20
89.82729483282674
 10
215.3749342105263
 20
87.06078947368421
 10
216.86663366336634
 20
84.74475247524752
 10
215.12907692307692
 20
81.51200000000003
 10
211.90504587155965
 20
84.6405504587156
 10
208.3671641791045
 20
83.80164179104477
 10
202.42022471910113
 20
89.72213483146072
 10
195.0684265010352
 20
81.79821946169774
 10
179.5620689655172
 20
80.96596059113303
 10
158.10743494423792
 20
84.32249070631971
 10
154.20485714285715
 20
85.09
 10
139.94038391224862
 20
93.04590493601467
 10
126.02125348189414
 20
97.99643454038997
 10
110.42228832951946
 20
113.26112128146454
 10
90.47836190476191
 20
126.53514285714286
 10
83.86747804265997
 20
132.68516938519446
 10
81.26914346895074
 20
135.1546680942184
 10
68.25362857142858
 20
146.11782857142856
 10
52.308183006535955
 20
154.68985620915032
 10
52.28645251396649
 20
154.2844134078212
 10
48.88575976845152
 20
155.7978002894356
 10
45.52617647058824
 20
155.6896218487395
 10
35.92280487804878
 20
163.66756097560977
 10
33.40711627906976
 20
165.2860930232558
 10
32.72593471810089
 20
166.11830860534124
 10
13.613592561284857
 20
174.76844463229077
 10
8.356818923327893
 20
178.48793637846654
 10
4.4588905547226405
 20
180.79569715142426
 10
2.7036248561565013
 20
180.87949367088606
  0
TEXT
  5
5E
330
17
100
AcDbEntity
  8
LABELS
100
AcDbText
 10
181.97824427480916
 20
301.9720610687024
 30
0.0
 40
2.0
  1
118.0
100
AcDbText
  0
LWPOLYLINE
  5
5F
330
17
100
AcDbEntity
  8
CONTOURS
100
AcDbPolyline
 90
40
 70
0
 10
190.07243276283614
 20
5.905085574572127
 10
260.0236607142857
 20
5.011246811224488
 10
229.65116365568542
 20
6.722539851222104
 10
226.61159638554216
 20
21.24380120481927
 10
219.06774566473985
 20
29.386346820809262
 10
225.06381954887215
 20
52.972496240601494
 10
224.66362500000002
 20
57.38900000000003
 10
229.48000000000005
 20
58.96250000000006
 10
243.69660714285715
 20
75.43732142857144
 10
251.33158490566035
 20
79.77720754716981
 10
261.23645161290324
 20
81.19025089605735
 10
272.2764285714286
 20
81.39500000000002
 10
294.08246268656706
 20
84.33298507462689
 10
294.49030674846625
 20
86.440490797546
 10
296.46026239067055
 20
88.31559766763849
 10
319.45533333333333
 20
91.13688888888889
 10
326.86471264367816
 20
92.55609195402299
 10
334.7701261261261
 20
94.4546126126126
 10
343.19157121879584
 20
98.66327459618208
 10
369.4341283124128
 20
102.43456066945606
 10
376.6777037037037
 20
106.9225185185185
 10
396.5378481012658
 20
111.33139240506331
 10
402.47291666666666
 20
109.39583333333331
 10
405.4830769230769
 20
108.86538461538457
 10
435.9194202898549
 20
106.42043478260867
 10
419.27649999999994
 20
102.43
 10
433.3590082644628
 20
89.92966942148763
 10
431.201796875
 20
76.822578125
 10
425.4210218978102
 20
70.22394160583943
 10
425.73825581395346
 20
65.5510465116279
 10
425.9737078651686
 20
61.53250936329588
 10
430.7375533980583
 20
52.818291262135915
 10
430.96911111111115
 20
49.547092592592605
 10
432.4552446183953
 20
21.11074363992173
 10
433.83297994269344
 20
18.58495702005731
 10
434.2711908396946
 20
16.317725190839692
 10
432.71833504624874
 20
13.387985611510793
 10
436.9655369928401
 20
9.94447096260939
 10
439.92221562809107
 20
5.8432245301681505
 10
439.9701125468945
 20
4.580066694456023
  0
TEXT
  5
60
330
17
100
AcDbEntity
  8
LABELS
100
AcDbText
 10
376.6777037037037
 20
106.9225185185185
 30
0.0
 40
2.0
  1
118.0
100
AcDbText
  0
LWPOLYLINE
  5
61
330
17
100
AcDbEntity
  8
CONTOURS
100
AcDbPolyline
 90
30
 70
0
 10
494.89675675675676
 20
102.60887387387386
 10
487.61878453038673
 20
101.27082872928176
 10
477.44795321637423
 20
104.27497076023391
 10
467.1180579710145
 20
106.15176811594202
 10
462.46988721804513
 20
108.73218045112782
 10
448.1819431279621
 20
105.38203791469198
 10
446.11522522522523
 20
109.17306306306308
 10
444.3339111111111
 20
110.42422222222226
 10
412.7044
 20
130.58280000000002
 10
416.6764632983794
 20
148.1939466158246
 10
419.99095238095236
 20
153.23095238095237
 10
420.774787339268
 20
157.27243323442136
 10
423.9687149758454
 20
159.7744541062802
 10
427.225078125
 20
198.618515625
 10
427.3554398708636
 20
207.74769975786924
 10
431.1883347350715
 20
214.92750210260726
 10
434.3058461538462
 20
226.84807692307692
 10
441.065
 20
238.66
 10
445.9652867132867
 20
248.35973426573426
 10
450.4380821917808
 20
250.07438356164386
 10
459.7570225872689
 20
252.2493223819302
 10
477.3831555555556
 20
263.7227555555555
 10
479.37800000000004
 20
264.6540869565217
 10
482.0610112359551
 20
263.27617977528087
 10
484.2425
 20
264.4675
 10
487.2810619469027
 20
265.04752212389377
 10
489.19142857142856
 20
263.3233333333333
 10
493.25817847286106
 20
261.16654093836246
 10
494.545696969697
 20
220.47521212121205
 10
496.20442324755993
 20
182.6606122448979
  0
TEXT
  5
62
330
17
100
AcDbEntity
  8
LABELS
100
AcDbText
 10
431.1883347350715
 20
214.92750210260726
 30
0.0
 40
2.0
  1
118.0
100
AcDbText
  0
LWPOLYLINE
  5
63
330
17
100
AcDbEntity
  8
CONTOURS
100
AcDbPolyline
 90
11
 70
0
 10
487.88241758241753
 20
465.456797488226
 10
486.01682926829267
 20
470.3170731707317
 10
485.78093023255815
 20
470.9067441860466
 10
477.53683720930235
 20
475.70153488372097
 10
471.6483582089552
 20
478.56925373134334
 10
466.75429333333335
 20
481.8279377777778
 10
465.0068307426598
 20
482.2428497409326
 10
463.2321818181818
 20
482.93238016528926
 10
461.5913475177305
 20
483.43606382978726
 10
459.5589968895801
 20
484.5336469673406
 10
448.96707708779445
 20
485.8255246252677
  0
TEXT
  5
64
330
17
100
AcDbEntity
  8
LABELS
100
AcDbText
 10
466.75429333333335
 20
481.8279377777778
 30
0.0
 40
2.0
  1
118.0
100
AcDbText
  0
LWPOLYLINE
  5
65
330
17
100
AcDbEntity
  8
CONTOURS
100
AcDbPolyline
 90
109
 70
0
 10
3.6799999999999997
 20
346.625
 10
5.40076058772688
 20
406.7123768366465
 10
6.7703
 20
368.2416117647059
 10
8.24676510067114
 20
359.08849664429533
 10
19.04141732283463
 20
360.64779527559057
 10
21.84945454545455
 20
361.06872727272724
 10
23.45728813559323
 20
360.70661016949146
 10
57.04591549295786
 20
367.93549295774653
 10
58.79106508875743
 20
368.3152662721894
 10
59.713921568627434
 20
368.58454248366013
 10
60.23964824120598
 20
369.4506532663316
 10
64.58073170731682
 20
376.5053658536581
 10
78.81177536231883
 20
399.40617753623184
 10
79.79547671840355
 20
401.98104212860306
 10
89.26050251256284
 20
431.4414572864321
 10
90.10345844504022
 20
439.4979892761394
 10
90.68729729729728
 20
448.58440381558034
 10
92.43596385542165
 20
453.67319277108425
 10
97.13982481751825
 20
482.8172846715329
 10
103.50072796934867
 20
489.4634227330779
 10
99.36924016282222
 20
496.4028765264586
 10
111.93232696897365
 20
498.59076372315036
 10
268.0917316692667
 20
493.44229329173163
 10
271.9883769161406
 20
492.77392245266003
 10
273.48766187050364
 20
492.28744604316546
 10
281.1294782608695
 20
478.46231055900626
 10
280.7359933222037
 20
471.09482470784644
 10
279.30197231833904
 20
461.8292041522492
 10
286.18521235521234
 20
448.9393436293436
 10
289.03313725490193
 20
444.471045751634
 10
291.69036971830985
 20
437.89438380281695
 10
291.00670658682634
 20
426.28778443113765
 10
299.32315315315316
 20
407.46630630630614
 10
303.77
 20
406.45
 10
309.67319327731093
 20
362.51050420168065
 10
305.1910106382979
 20
353.44361702127657
 10
308.40692857142864
 20
348.9044285714285
 10
289.80415
 20
344.0938500000001
 10
285.0223350253807
 20
332.5703553299493
 10
276.294328358209
 20
318.61719402985074
 10
270.5150793650794
 20
315.740634920635
 10
261.4610424710425
 20
315.8952123552124
 10
254.60902621722846
 20
318.72235955056175
 10
241.28401709401712
 20
319.7587179487179
 10
233.87985185185187
 20
302.6821481481482
 10
206.04601941747563
 20
297.39388349514553
 10
204.17035714285714
 20
296.17696428571423
 10
203.97835390946506
 20
295.84761316872425
 10
191.8637404580153
 20
282.19343511450376
 10
191.67484472049694
 20
281.71987577639743
 10
191.04583333333338
 20
279.115
 10
184.8561971830987
 20
275.16873239436626
 10
174.39167883211675
 20
261.0169343065694
 10
182.42090909090908
 20
248.95090909090908
 10
187.21510638297872
 20
251.1110638297872
 10
188.13000000000014
 20
255.20285714285774
 10
188.0773394495414
 20
251.30366972477069
 10
187.8756704980844
 20
250.5936398467432
 10
205.82452436194896
 20
206.65301624129933
 10
209.7576363636364
 20
193.40945454545454
 10
212.66296703296706
 20
185.09604395604396
 10
213.11392484342383
 20
184.3494363256785
 10
214.05226086956523
 20
180.97339130434787
 10
223.46445454545454
 20
145.56284090909088
 10
228.0536142322097
 20
134.81288389513108
 10
227.41667863554756
 20
132.78014362657092
 10
235.8966497461928
 20
118.7951269035534
 10
238.1409115281501
 20
105.10471849865951
 10
238.63246200607898
 20
100.78778115501518
 10
238.30256578947365
 20
99.92921052631576
 10
243.07369458128076
 20
92.52147783251223
 10
252.0247169811321
 20
92.98415094339617
 10
253.2863440860215
 20
91.91956989247309
 10
282.92522077922075
 20
92.72833766233771
 10
284.299978308026
 20
97.13416485900215
 10
294.69608108108105
 20
96.96216216216216
 10
320.3914770459082
 20
99.88227544910178
 10
324.67048309178745
 20
99.42541062801932
 10
331.3719279279279
 20
101.0347927927928
 10
346.93019089574153
 20
108.81011747430247
 10
361.37834030683405
 20
110.88644351464436
 10
373.94807407407404
 20
118.67437037037033
 10
380.95232142857145
 20
120.22928571428571
 10
386.71006622516563
 20
122.18364238410595
 10
399.13013812154696
 20
125.39263812154695
 10
404.62498570066725
 20
149.75543374642515
 10
411.1264835164835
 20
159.63571428571427
 10
412.6640059347181
 20
167.56323442136497
 10
415.06243478260876
 20
169.44208695652173
 10
417.5077485795454
 20
198.61141335227273
 10
417.60564164648906
 20
205.46682808716707
 10
423.1967451640034
 20
215.94011774600506
 10
426.27017937219733
 20
227.6921524663677
 10
424.66936842105264
 20
230.08894736842106
 10
427.2556672760512
 20
234.5259780621572
 10
434.9778741258741
 20
249.81148251748252
 10
445.11090725806446
 20
253.6959879032258
 10
448.81808080808077
 20
257.5327272727273
 10
456.6246464646465
 20
261.07818181818186
 10
472.92502127659577
 20
271.47893617021276
 10
475.0592307692308
 20
271.2113461538462
 10
477.03571428571433
 20
268.5761904761905
 10
477.92617977528084
 20
268.11887640449436
 10
483.41295454545457
 20
271.1152272727272
 10
491.0553982300885
 20
272.57407079646015
 10
491.77178571428567
 20
271.92749999999995
 10
493.2968169273229
 20
271.1187028518859
 10
493.77963636363637
 20
255.85945454545444
 10
496.09528393966286
 20
203.06877551020403
  0
TEXT
  5
66
330
17
100
AcDbEntity
  8
LABELS
100
AcDbText
 10
187.21510638297872
 20
251.1110638297872
 30
0.0
 40
2.0
  1
120.0
100
AcDbText
  0
LWPOLYLINE
  5
67
330
17
100
AcDbEntity
  8
CONTOURS
100
AcDbPolyline
 90
35
 70
0
 10
170.45629584352073
 20
6.325623471882642
 10
248.61294642857143
 20
5.3269355867346935
 10
222.4853825717322
 20
6.799054197662062
 10
219.87063253012047
 20
19.290789156626502
 10
205.73826589595376
 20
34.54472832369943
 10
209.8487819548872
 20
50.713849624060146
 10
209.02598290598294
 20
59.79417094017095
 10
194.86950092421444
 20
68.79081330868763
 10
190.3786931818182
 20
69.28582386363637
 10
160.85636363636365
 20
75.26272727272726
 10
159.2425
 20
76.62772727272726
 10
155.90509933774837
 20
77.3387417218543
 10
148.69533333333337
 20
78.75666666666667
 10
143.57475319926874
 20
81.61263254113348
 10
130.90702127659577
 20
86.11808510638295
 10
120.93904761904763
 20
90.83014285714283
 10
118.59342222222222
 20
92.40702222222221
 10
117.96850170261065
 20
93.13180476730987
 10
89.54589743589726
 20
118.4343589743591
 10
88.93487414187638
 20
119.03228832951946
 10
88.73740952380952
 20
119.16371428571428
 10
78.03309912170639
 20
129.12180677540778
 10
73.82588865096359
 20
133.12040685224838
 10
65.07077142857143
 20
140.49497142857143
 10
54.3447843137255
 20
146.26109803921565
 10
54.29483240223463
 20
145.3291061452514
 10
46.47765557163531
 20
148.80793053545585
 10
44.3693137254902
 20
148.74004201680674
 10
34.7582905982906
 20
156.7243376068376
 10
28.600374732334043
 20
160.31114561027837
 10
11.703488372092975
 20
169.35343023255814
 10
6.813930684699903
 20
171.56641589180052
 10
5.9196247960848245
 20
172.19919249592166
 10
5.25649175412294
 20
172.59179910044975
 10
2.677157652474108
 20
172.71493670886076
  0
TEXT
  5
68
330
17
100
AcDbEntity
  8
LABELS
100
AcDbText
 10
117.96850170261065
 20
93.13180476730987
 30
0.0
 40
2.0
  1
120.0
100
AcDbText
  0
LWPOLYLINE
  5
69
330
17
100
AcDbEntity
  8
CONTOURS
100
AcDbPolyline
 90
19
 70
0
 10
494.26972972972976
 20
91.31337837837837
 10
484.1093922651934
 20
89.44541436464088
 10
479.0239766081871
 20
90.94748538011696
 10
471.62064896755163
 20
92.2925663716814
 10
463.53276315789475
 20
92.09548245614036
 10
457.84408376963347
 20
88.01214659685864
 10
452.32550898203596
 20
81.0379640718563
 10
445.871875
 20
73.1296875
 10
443.5725
 20
71.07000000000002
 10
437.568
 20
63.852000000000004
 10
441.01650887573965
 20
57.64544378698225
 10
442.45300000000003
 20
54.091656250000014
 10
442.5997142857143
 20
49.895682539682525
 10
443.5374418604651
 20
25.149418604651153
 10
442.9658490566038
 20
15.58132075471698
 10
441.77280575539567
 20
13.330431654676257
 10
447.52878281622907
 20
8.663643595863167
 10
449.63339268051436
 20
5.74431256181998
 10
449.66748645268865
 20
4.845177157148812
  0
TEXT
  5
6A
330
17
100
AcDbEntity
  8
LABELS
100
AcDbText
 10
437.568
 20
63.852000000000004
 30
0.0
 40
2.0
  1
120.0
100
AcDbText
  0
LWPOLYLINE
  5
6B
330
17
100
AcDbEntity
  8
CONTOURS
100
AcDbPolyline
 90
11
 70
0
 10
488.72490842490845
 20
453.52691784406073
 10
484.5561246612466
 20
464.3875338753387
 10
484.2618333333333
 20
465.12316666666663
 10
483.45779527559057
 20
465.13850393700784
 10
477.1750106609808
 20
468.19825159914717
 10
464.0556266666667
 20
476.9337155555556
 10
459.37125215889466
 20
478.0459585492228
 10
454.61400000000003
 20
479.89436363636366
 10
450.2154609929078
 20
481.2445744680851
 10
444.76739502332816
 20
484.18683514774494
 10
416.3739293361885
 20
487.6499357601713
  0
TEXT
  5
6C
330
17
100
AcDbEntity
  8
LABELS
100
AcDbText
 10
464.0556266666667
 20
476.9337155555556
 30
0.0
 40
2.0
  1
120.0
100
AcDbText
  0
LWPOLYLINE
  5
6D
330
17
100
AcDbEntity
  8
CONTOURS
100
AcDbPolyline
 90
85
 70
0
 10
100.34065315315344
 20
499.42891891891895
 10
283.72043681747266
 20
493.38301092043685
 10
288.7854914337241
 20
492.5142290351668
 10
289.6063669064748
 20
492.2478776978417
 10
293.79034782608693
 20
484.6784596273292
 10
293.1800667779633
 20
473.25175292153585
 10
290.9559515570934
 20
458.88110726643606
 10
291.4361776061776
 20
457.9818146718147
 10
292.83754716981133
 20
455.78311320754705
 10
304.31627906976746
 20
437.8644186046512
 10
310.0773170731708
 20
421.25
 10
320.5748048048048
 20
405.54309309309303
 10
334.27704225352113
 20
383.3044600938967
 10
334.8223529411765
 20
379.1655882352942
 10
335.59467889908257
 20
360.6768348623853
 10
331.9422408026756
 20
353.6349498327759
 10
326.15452722063037
 20
343.3992836676217
 10
328.11055415617136
 20
341.9802267002519
 10
314.04950738916256
 20
327.0885960591133
 10
313.8725227963526
 20
322.0794224924012
 10
301.815687732342
 20
318.5733457249071
 10
296.1850522648084
 20
316.87766550522645
 10
298.373014354067
 20
310.84593301435405
 10
272.7130434782609
 20
297.9602898550724
 10
271.6077611940299
 20
296.1933134328358
 10
270.05120481927713
 20
295.41855421686745
 10
268.33967741935487
 20
290.46129032258057
 10
260.9357142857143
 20
289.2457142857143
 10
243.3368
 20
283.5756
 10
241.5788111888112
 20
276.21167832167833
 10
230.45666666666665
 20
266.88166666666666
 10
229.4202824858757
 20
264.5333333333333
 10
227.4788038277512
 20
264.44
 10
226.4714736842105
 20
263.4983157894737
 10
226.4443119266055
 20
261.4871559633027
 10
216.15919540229896
 20
225.275632183908
 10
220.1400696055685
 20
215.53004640371233
 10
221.48345971563984
 20
211.00658767772518
 10
223.31282527881044
 20
191.84122676579926
 10
223.619756097561
 20
185.80073170731708
 10
224.36107692307695
 20
182.11464615384617
 10
228.5008181818182
 20
166.54011363636363
 10
241.66784644194757
 20
135.69677902621723
 10
239.84037701974864
 20
129.86452423698384
 10
250.6825
 20
111.98388888888887
 10
256.58879699248115
 20
111.05045112781953
 10
261.4906451612903
 20
106.91419354838709
 10
274.4784675324675
 20
107.26859740259742
 10
275.08088937093277
 20
109.19924078091104
 10
305.2790926640927
 20
108.69961389961391
 10
318.5311976047904
 20
110.20562874251496
 10
325.8234693877551
 20
109.42704081632655
 10
343.5957142857143
 20
115.42214285714286
 10
350.6688105726872
 20
118.9569603524229
 10
353.32255230125526
 20
119.3383263598326
 10
356.9786440677966
 20
121.6035593220339
 10
367.15159763313613
 20
126.17958579881656
 10
369.9235514018692
 20
129.3471028037383
 10
371.40282722513086
 20
130.06246073298428
 10
388.79312154696134
 20
134.55562154696133
 10
392.5735081029552
 20
151.31692087702572
 10
402.26201465201467
 20
166.04047619047617
 10
404.5532245301681
 20
177.85403560830858
 10
406.156154589372
 20
179.10971980676328
 10
407.79041903409086
 20
198.60431107954545
 10
407.8558434221146
 20
203.18595641646488
 10
415.2051555929353
 20
216.95273338940288
 10
417.16704035874443
 20
224.45448430493275
 10
412.8062105263158
 20
230.98368421052632
 10
419.8516453382084
 20
243.07076782449724
 10
423.99046153846155
 20
251.26323076923074
 10
429.42139112903226
 20
253.34518145161292
 10
444.53525252525253
 20
268.98727272727274
 10
452.22171717171705
 20
272.4781818181818
 10
463.76288
 20
277.16136
 10
469.85639484978543
 20
277.8104721030043
 10
473.83090909090913
 20
277.4901298701299
 10
474.46948717948715
 20
277.4100641025641
 10
474.600752688172
 20
277.23505376344093
 10
474.9078947368421
 20
277.4073684210527
 10
476.53777777777765
 20
277.65000000000003
 10
485.7752845528455
 20
278.8233333333333
 10
491.6534104046243
 20
280.3251445086705
 10
493.4280475857243
 20
281.79482855143453
 10
495.9861446317658
 20
223.47693877551012
  0
TEXT
  5
6E
330
17
100
AcDbEntity
  8
LABELS
100
AcDbText
 10
241.66784644194757
 20
135.69677902621723
 30
0.0
 40
2.0
  1
122.0
100
AcDbText
  0
LWPOLYLINE
  5
6F
330
17
100
AcDbEntity
  8
CONTOURS
100
AcDbPolyline
 90
21
 70
0
 10
3.9739297124600634
 20
394.02276357827475
 10
5.144926534140017
 20
434.9128954191875
 10
7.0303
 20
381.9522
 10
9.062872483221476
 20
369.35158389261744
 10
20.522315789473687
 20
371.0069122807017
 10
21.83484536082474
 20
369.0809278350515
 10
44.903775933609936
 20
372.3903319502075
 10
55.38690802348335
 20
378.41960861056754
 10
67.2103260869565
 20
397.44603260869565
 10
74.54048780487804
 20
416.6329268292683
 10
79.49835845896149
 20
432.06457286432163
 10
81.24303571428568
 20
448.73928571428564
 10
81.24926153846151
 20
449.0192307692307
 10
81.17469314079418
 20
449.43433212996393
 10
82.55761904761917
 20
457.06047619047706
 10
87.96026277372265
 20
490.53407299270077
 10
88.45858237547894
 20
491.0547381864623
 10
86.4704347826087
 20
494.3941304347826
 10
82.93231788079467
 20
497.66771523178807
 10
81.6955011655011
 20
499.75589743589745
 10
80.21641666666656
 20
499.7456111111111
  0
TEXT
  5
70
330
17
100
AcDbEntity
  8
LABELS
100
AcDbText
 10
79.49835845896149
 20
432.06457286432163
 30
0.0
 40
2.0
  1
122.0
100
AcDbText
  0
LWPOLYLINE
  5
71
330
17
100
AcDbEntity
  8
CONTOURS
100
AcDbPolyline
 90
34
 70
0
 10
150.84015892420533
 20
6.746161369193155
 10
237.20223214285716
 20
5.642624362244897
 10
215.31960148777895
 20
6.875568544102019
 10
213.1296686746988
 20
17.337777108433734
 10
192.40878612716762
 20
39.703109826589596
 10
194.63374436090226
 20
48.45520300751879
 10
194.1883760683761
 20
53.37023931623932
 10
186.52569316081332
 20
58.23998151571165
 10
173.4809659090909
 20
59.67786931818182
 10
167.86335664335667
 20
60.81517482517482
 10
157.97326923076923
 20
69.18017482517482
 10
147.75251781472684
 20
71.35764845605702
 10
145.96069306930696
 20
71.55930693069308
 10
145.05521739130435
 20
72.54391304347827
 10
144.2000628930818
 20
72.63779874213837
 10
142.29245398773008
 20
73.66865030674846
 10
120.96285714285716
 20
83.75157142857141
 10
112.44453333333334
 20
89.47813333333333
 10
110.17508513053349
 20
92.11023836549376
 10
88.1972602739726
 20
111.67547945205479
 10
77.93191176470586
 20
117.7979044117647
 10
75.12205882352939
 20
122.83889705882353
 10
72.19872020075282
 20
125.55844416562105
 10
66.38263383297644
 20
131.08614561027838
 10
61.88791428571428
 20
134.87211428571428
 10
56.38138562091504
 20
137.83233986928104
 10
56.3032122905028
 20
136.3737988826816
 10
44.06955137481911
 20
141.81806078147613
 10
43.212450980392155
 20
141.79046218487397
 10
39.305299145299145
 20
145.03630341880344
 10
23.745985010706633
 20
154.09915417558886
 10
6.189960629921261
 20
163.49417322834645
 10
4.990952380952381
 20
164.43865546218484
 10
2.6506904487917144
 20
164.55037974683543
  0
TEXT
  5
72
330
17
100
AcDbEntity
  8
LABELS
100
AcDbText
 10
112.44453333333334
 20
89.47813333333333
 30
0.0
 40
2.0
  1
122.0
100
AcDbText
  0
LWPOLYLINE
  5
73
330
17
100
AcDbEntity
  8
CONTOURS
100
AcDbPolyline
 90
13
 70
0
 10
493.6427027027027
 20
80.01788288288287
 10
480.6
 20
77.62
 10
456.09164473684206
 20
67.09578947368416
 10
452.32724409448815
 20
62.544330708661406
 10
451.0186092715232
 20
61.324635761589406
 10
451.85299999999995
 20
59.26040625000002
 10
452.37114285714284
 20
44.44171428571428
 10
452.5141860465116
 20
40.66686046511628
 10
450.88408805031446
 20
13.380062893081753
 10
450.82727646454265
 20
13.272877697841725
 10
458.0920286396181
 20
7.382816229116944
 10
459.34456973293766
 20
5.64540059347181
 10
459.36486035848276
 20
5.110287619841602
  0
TEXT
  5
74
330
17
100
AcDbEntity
  8
LABELS
100
AcDbText
 10
452.37114285714284
 20
44.44171428571428
 30
0.0
 40
2.0
  1
122.0
100
AcDbText
  0
LWPOLYLINE
  5
75
330
17
100
AcDbEntity
  8
CONTOURS
100
AcDbPolyline
 90
12
 70
0
 10
489.5673992673993
 20
441.59703819989534
 10
483.09542005420053
 20
458.45799457994576
 10
482.9576666666666
 20
458.8023333333333
 10
481.42840707964604
 20
458.8315044247788
 10
479.88040268456376
 20
459.52822147651005
 10
479.1751829268292
 20
460.1753353658537
 10
461.35696
 20
472.0394933333333
 10
453.73567357512957
 20
473.8490673575129
 10
445.9958181818182
 20
476.85634710743807
 10
438.8395744680851
 20
479.05308510638304
 10
429.97579315707617
 20
483.8400233281493
 10
383.7807815845825
 20
489.474346895075
  0
TEXT
  5
76
330
17
100
AcDbEntity
  8
LABELS
100
AcDbText
 10
461.35696
 20
472.0394933333333
 30
0.0
 40
2.0
  1
122.0
100
AcDbText
  0
LWPOLYLINE
  5
77
330
17
100
AcDbEntity
  8
CONTOURS
100
AcDbPolyline
 90
100
 70
0
 10
204.34515765765767
 20
496.4559459459459
 10
299.3491419656786
 20
493.32372854914195
 10
305.58260595130747
 20
492.2545356176735
 10
305.72507194244605
 20
492.20830935251803
 10
306.45121739130434
 20
490.89460869565215
 10
306.3188349514563
 20
488.41592233009703
 10
306.52654676258993
 20
486.97266187050354
 10
308.7094696969697
 20
486.0109090909091
 10
306.59579295154185
 20
473.6757488986784
 10
304.4523247232472
 20
462.24736162361626
 10
315.42461538461544
 20
437.91153846153844
 10
316.11029900332227
 20
436.8411627906977
 10
316.38463414634145
 20
436.05000000000007
 10
318.65454545454537
 20
432.6536363636366
 10
334.7265573770492
 20
408.5426229508197
 10
337.2624827586207
 20
404.1729655172414
 10
349.9279318734794
 20
386.9770316301703
 10
349.85555555555555
 20
382.5543434343434
 10
357.72181818181815
 20
372.9781818181818
 10
362.5208625336927
 20
362.25617250673855
 10
365.005
 20
352.28749999999997
 10
348.7531081081081
 20
337.76824324324315
 10
348.6922222222222
 20
338.9216049382715
 10
347.5877257525084
 20
336.79214046822733
 10
347.31212034383964
 20
336.30472779369626
 10
347.40526448362726
 20
336.237153652393
 10
318.3056650246305
 20
305.418645320197
 10
318.22883116883116
 20
303.244025974026
 10
316.90967213114754
 20
301.59393442622957
 10
320.46156249999996
 20
302.8315625
 10
344.05000000000024
 20
329.70090909090936
 10
354.2628571428568
 20
324.87142857142925
 10
357.015023923445
 20
320.44124401913876
 10
357.05617747440283
 20
320.1645051194539
 10
356.77548022598876
 20
320.0388700564971
 10
356.7317910447762
 20
319.91686567164174
 10
354.67999999999984
 20
316.3272727272724
 10
339.852857142857
 20
298.89428571428573
 10
325.28815126050426
 20
298.65563025210076
 10
314.95406779661016
 20
295.39898305084745
 10
313.729872611465
 20
291.89292993630573
 10
308.5080645161291
 20
291.6377419354838
 10
310.42171673819746
 20
286.2762231759657
 10
298.0832653061224
 20
280.76081632653063
 10
272.5873333333334
 20
267.264125
 10
262.8469135802469
 20
264.789012345679
 10
257.4916030534351
 20
261.83213740458007
 10
246.60151260504202
 20
248.42978991596638
 10
240.25868686868688
 20
246.40565656565656
 10
236.98866141732287
 20
228.71181102362203
 10
233.8801529051988
 20
206.47568807339448
 10
235.29052044609668
 20
191.69996282527882
 10
235.7098406374502
 20
183.44760956175298
 10
237.01515306122448
 20
179.65591836734694
 10
249.86159574468095
 20
149.2779787234041
 10
255.28207865168542
 20
136.58067415730338
 10
252.26407540394973
 20
126.94890484739676
 10
254.43250000000003
 20
123.37277777777777
 10
262.0295744680851
 20
122.17212765957446
 10
261.21563380281685
 20
129.82070422535216
 10
268.9295133819951
 20
120.89885644768856
 10
270.5434792122538
 20
120.9149452954048
 10
305.45210526315816
 20
120.60929824561406
 10
315.8621042471043
 20
120.43706563706566
 10
316.67091816367264
 20
120.52898203592817
 10
317.1159863945578
 20
120.48146258503404
 10
319.25523809523804
 20
121.20309523809524
 10
345.8389099526066
 20
128.8247156398104
 10
351.0262121212121
 20
128.24318181818182
 10
358.26007889546355
 20
131.49714003944774
 10
365.23196261682244
 20
139.46392523364486
 10
368.95256544502615
 20
141.26315881326352
 10
378.45610497237567
 20
143.7186049723757
 10
380.5220305052431
 20
152.87840800762632
 10
393.3975457875458
 20
172.44523809523807
 10
396.4424431256182
 20
188.14483679525225
 10
397.2498743961352
 20
188.7773526570048
 10
398.07308948863636
 20
198.5972088068182
 10
398.1060451977401
 20
200.90508474576274
 10
407.21356602186717
 20
217.9653490328007
 10
408.0639013452915
 20
221.2168161434978
 10
405.28764705882355
 20
225.3735294117647
 10
402.72206477732794
 20
228.04894736842107
 10
402.73719101123595
 20
232.44662921348316
 10
403.2623809523809
 20
236.3092857142857
 10
410.8749101796408
 20
248.9174251497006
 10
412.44762340036567
 20
251.61555758683727
 10
413.003048951049
 20
252.714979020979
 10
413.73187500000006
 20
252.994375
 10
416.3706030150754
 20
255.72532663316582
 10
429.5841686746988
 20
276.8882409638554
 10
431.2107862407862
 20
279.36447174447176
 10
445.14023437500003
 20
281.20378906250005
 10
447.58000000000004
 20
281.9704347826087
 10
464.5666666666666
 20
284.53212121212124
 10
469.9972389380531
 20
284.08208849557525
 10
470.40452342487885
 20
284.04859450726985
 10
487.48693641618496
 20
288.4130057803468
 10
493.69816655003495
 20
293.5568999300209
 10
495.87700532386873
 20
243.8851020408163
  0
TEXT
  5
78
330
17
100
AcDbEntity
  8
LABELS
100
AcDbText
 10
233.8801529051988
 20
206.47568807339448
 30
0.0
 40
2.0
  1
124.0
100
AcDbText
  0
LWPOLYLINE
  5
79
330
17
100
AcDbEntity
  8
CONTOURS
100
AcDbPolyline
 90
18
 70
0
 10
4.267859424920127
 20
441.42052715654944
 10
4.889092480553155
 20
463.11341400172853
 10
7.2903
 20
395.6627882352941
 10
9.878979865771813
 20
379.6146711409396
 10
18.318807017543865
 20
380.83381286549707
 10
22.365773195876287
 20
374.8953608247423
 10
29.634066390041497
 20
375.93804979253105
 10
51.152074363992156
 20
388.3139334637965
 10
55.60887681159417
 20
395.4858876811594
 10
69.28549889135256
 20
431.2848115299335
 10
69.73621440536016
 20
432.6876884422111
 10
69.89482142857145
 20
434.2035714285715
 10
70.21233846153845
 20
448.48076923076917
 10
66.40935018050543
 20
469.6509386281588
 10
68.47968750000004
 20
481.06781249999995
 10
66.87933774834438
 20
482.5485099337749
 10
57.11275058275055
 20
499.03794871794867
 10
45.43308333333332
 20
498.9567222222222
  0
TEXT
  5
7A
330
17
100
AcDbEntity
  8
LABELS
100
AcDbText
 10
69.28549889135256
 20
431.2848115299335
 30
0.0
 40
2.0
  1
124.0
100
AcDbText
  0
LWPOLYLINE
  5
7B
330
17
100
AcDbEntity
  8
CONTOURS
100
AcDbPolyline
 90
36
 70
0
 10
131.2240220048899
 20
7.166699266503668
 10
225.79151785714288
 20
5.9583131377551
 10
208.1538204038257
 20
6.952082890541977
 10
206.3887048192771
 20
15.384765060240962
 10
179.07930635838153
 20
44.861491329479776
 10
179.4187067669173
 20
46.19655639097744
 10
179.35076923076923
 20
46.94630769230769
 10
178.1818853974122
 20
47.68914972273567
 10
175.31428571428572
 20
48.00523809523809
 10
162.20772727272725
 20
57.077622377622376
 10
156.70403846153846
 20
61.73262237762238
 10
152.62187648456057
 20
62.602304038004746
 10
146.75772277227725
 20
63.26227722772277
 10
143.79434782608695
 20
66.48462450592888
 10
140.9956603773585
 20
66.79188679245283
 10
134.75257668711657
 20
70.1655828220859
 10
120.98666666666666
 20
76.673
 10
106.29564444444446
 20
86.54924444444444
 10
102.38166855845631
 20
91.08867196367764
 10
87.6692403486924
 20
104.18606475716066
 10
67.03485294117644
 20
116.49275735294118
 10
64.96294117647057
 20
120.20985294117645
 10
59.4541605839416
 20
128.56262773722628
 10
58.93937901498929
 20
129.05188436830835
 10
58.70505714285714
 20
129.24925714285715
 10
58.417986928104575
 20
129.4035816993464
 10
58.395306122448986
 20
128.9804081632653
 10
57.21222222222223
 20
129.01746031746032
 10
52.67181818181817
 20
131.24545454545455
 10
43.54662952646239
 20
134.68548746518107
 10
40.93031865042175
 20
135.6891096532334
 10
37.91671673819746
 20
136.80557939914164
 10
18.89159528907923
 20
147.88716274089938
 10
7.158464566929133
 20
154.16608923884513
 10
4.451269841269841
 20
156.2985994397759
 10
2.624223245109321
 20
156.38582278481013
  0
TEXT
  5
7C
330
17
100
AcDbEntity
  8
LABELS
100
AcDbText
 10
102.38166855845631
 20
91.08867196367764
 30
0.0
 40
2.0
  1
124.0
100
AcDbText
  0
LWPOLYLINE
  5
7D
330
17
100
AcDbEntity
  8
CONTOURS
100
AcDbPolyline
 90
12
 70
0
 10
493.0156756756757
 20
68.72238738738737
 10
492.69756097560975
 20
68.66390243902437
 10
486.0220183486238
 20
70.52825688073396
 10
473.00663900414935
 20
57.67809128630702
 10
467.82765
 20
54.96964999999999
 10
467.986
 20
51.56400000000002
 10
463.93741721854303
 20
31.360927152317878
 10
463.15599164926937
 20
11.988789144050102
 10
466.22577464788736
 20
8.071760563380273
 10
468.6552744630072
 20
6.101988862370723
 10
469.05574678536107
 20
5.54648862512364
 10
469.0622342642768
 20
5.37539808253439
  0
TEXT
  5
7E
330
17
100
AcDbEntity
  8
LABELS
100
AcDbText
 10
463.93741721854303
 20
31.360927152317878
 30
0.0
 40
2.0
  1
124.0
100
AcDbText
  0
LWPOLYLINE
  5
7F
330
17
100
AcDbEntity
  8
CONTOURS
100
AcDbPolyline
 90
12
 70
0
 10
490.4098901098901
 20
429.66715855573
 10
482.0849872122762
 20
451.35539641943734
 10
481.82808955223885
 20
452.00865671641793
 10
480.6651351351352
 20
453.01621621621626
 10
474.1220134228188
 20
455.9611073825504
 10
470.5959146341463
 20
459.1966768292683
 10
458.65829333333335
 20
467.14527111111113
 10
448.1000949913645
 20
469.6521761658031
 10
437.3776363636364
 20
473.81833057851236
 10
427.4636879432624
 20
476.86159574468087
 10
415.1841912908242
 20
483.49321150855366
 10
351.18763383297653
 20
491.29875802997856
  0
TEXT
  5
80
330
17
100
AcDbEntity
  8
LABELS
100
AcDbText
 10
458.65829333333335
 20
467.14527111111113
 30
0.0
 40
2.0
  1
124.0
100
AcDbText
  0
LWPOLYLINE
  5
81
330
17
100
AcDbEntity
  8
CONTOURS
100
AcDbPolyline
 90
76
 70
0
 10
308.34966216216185
 20
493.48297297297296
 10
314.9778471138845
 20
493.26444617784716
 10
315.5395953757225
 20
493.1680924855491
 10
315.775
 20
492.99
 10
320.4431677018634
 20
479.3359937888199
 10
319.04072687224675
 20
471.1515198237886
 10
318.09808118081185
 20
466.12559040590406
 10
323.33083573487033
 20
454.5196829971182
 10
339.6461538461539
 20
437.8462937062937
 10
333.67980535279804
 20
434.1965693430657
 10
343.6118032786885
 20
419.2967213114754
 10
353.7176551724138
 20
401.8833103448276
 10
359.4997080291971
 20
394.0329927007299
 10
359.4666666666667
 20
392.0139393939394
 10
363.05778656126483
 20
387.64221343873515
 10
374.8119676549865
 20
361.381060197664
 10
380.8963043478261
 20
336.96503623188397
 10
371.6638118811882
 20
328.71683168316827
 10
376.7662200956939
 20
320.5034449760766
 10
378.86505119453926
 20
306.38976109215014
 10
364.5494915254237
 20
299.9823728813559
 10
362.3213432835821
 20
293.76014925373136
 10
359.38544715447154
 20
288.6238211382114
 10
347.0895744680851
 20
280.6212765957447
 10
336.07000000000005
 20
285.78571428571433
 10
328.30215686274505
 20
285.658431372549
 10
324.5924858757062
 20
284.48937853107344
 10
321.9908121827411
 20
277.03827411167515
 10
317.6067704280156
 20
272.801906614786
 10
294.6614147909968
 20
262.89424437299033
 10
281.7128307692308
 20
249.83406153846153
 10
273.10934426229505
 20
242.0253114754098
 10
255.94309803921573
 20
231.18627450980392
 10
248.63967032967028
 20
194.10274725274718
 10
247.66647457627118
 20
192.05054237288135
 10
247.7756379821958
 20
190.69640949554898
 10
252.43352040816325
 20
177.1661224489796
 10
264.14506072874497
 20
149.4718825910931
 10
267.54070588235294
 20
138.3740294117647
 10
273.65457420924577
 20
131.30274939172747
 10
282.60474835886214
 20
131.39196936542672
 10
306.68575
 20
131.181125
 10
317.5200625
 20
131.77718750000003
 10
330.9210236220473
 20
136.43240157480315
 10
338.5213744075829
 20
138.6114454976303
 10
346.56423913043477
 20
137.70978260869566
 10
346.61368421052634
 20
142.8421052631579
 10
365.14606896551726
 20
151.80800000000002
 10
366.50230366492144
 20
152.46385689354275
 10
368.11908839779
 20
152.88158839779004
 10
368.47055290753093
 20
154.4398951382269
 10
384.5330769230769
 20
178.85
 10
388.33166172106826
 20
198.43563798219586
 10
388.34359420289854
 20
198.44498550724637
 10
388.3557599431818
 20
198.59010653409092
 10
388.35624697336556
 20
198.62421307506054
 10
388.98339999999996
 20
199.79900000000004
 10
397.5176632302406
 20
219.94810996563575
 10
392.6001201201201
 20
225.63381381381382
 10
393.50743119266053
 20
232.71146788990822
 10
393.5124719101123
 20
234.17696629213484
 10
394.81
 20
243.72
 10
395.65507352941177
 20
255.45636029411764
 10
409.1953240740741
 20
278.6577314814815
 10
412.6010361445783
 20
284.1123373493976
 10
416.16410319410323
 20
289.5364619164619
 10
418.437109375
 20
289.8366015625
 10
423.0021276595745
 20
291.2710638297872
 10
443.2780281690141
 20
295.7678873239436
 10
451.1602816901408
 20
294.34403755868544
 10
453.15824480369514
 20
295.194688221709
 10
469.27511504424774
 20
293.8590796460177
 10
472.0781906300484
 20
293.6285621970921
 10
483.3204624277456
 20
296.50086705202307
 10
493.96828551434567
 20
305.3189713086074
 10
495.7678660159716
 20
264.2932653061224
  0
TEXT
  5
82
330
17
100
AcDbEntity
  8
LABELS
100
AcDbText
 10
267.54070588235294
 20
138.3740294117647
 30
0.0
 40
2.0
  1
126.0
100
AcDbText
  0
LWPOLYLINE
  5
83
330
17
100
AcDbEntity
  8
CONTOURS
100
AcDbPolyline
 90
18
 70
0
 10
4.561789137380191
 20
488.8182907348242
 10
4.633258426966292
 20
491.31393258426965
 10
7.550300000000001
 20
409.37337647058825
 10
10.695087248322146
 20
389.8777583892617
 10
16.11529824561404
 20
390.6607134502924
 10
20.19329764453962
 20
384.6767237687366
 10
23.67301886792453
 20
383.35037735849056
 10
42.34380622837366
 20
394.3792733564014
 10
46.4466956521739
 20
400.0589855072464
 10
56.84206278026906
 20
427.3822869955157
 10
58.97408450704229
 20
438.88943661971825
 10
59.1754153846154
 20
447.9423076923076
 10
55.76975871313675
 20
466.90064343163544
 10
55.149848866498736
 20
471.98198992443326
 10
50.0521967213115
 20
475.3769180327869
 10
32.53
 20
498.32
 10
26.010607287449382
 20
491.35004048583
 10
9.54000000000008
 20
495.926947368421
  0
TEXT
  5
84
330
17
100
AcDbEntity
  8
LABELS
100
AcDbText
 10
56.84206278026906
 20
427.3822869955157
 30
0.0
 40
2.0
  1
126.0
100
AcDbText
  0
LWPOLYLINE
  5
85
330
17
100
AcDbEntity
  8
CONTOURS
100
AcDbPolyline
 90
29
 70
0
 10
111.60788508557448
 20
7.587237163814182
 10
214.38080357142857
 20
6.274001913265305
 10
200.98803931987248
 20
7.028597236981934
 10
199.64774096385543
 20
13.431753012048192
 10
177.0306918238994
 20
37.8437358490566
 10
172.51782920989626
 20
42.36995211492418
 10
155.22361591695503
 20
54.628581314878886
 10
147.05242966751916
 20
55.67219948849104
 10
142.94758620689655
 20
57.787413793103454
 10
143.26705882352942
 20
59.62764705882353
 10
142.53347826086954
 20
60.42533596837947
 10
137.79125786163522
 20
60.945974842767306
 10
127.21269938650306
 20
66.66251533742332
 10
121.01047619047618
 20
69.59442857142857
 10
100.14675555555557
 20
83.62035555555556
 10
94.58825198637913
 20
90.06710556186152
 10
87.1412204234122
 20
96.69665006226653
 10
64.81776061776064
 20
110.01073359073357
 10
59.01134474327628
 20
113.73449877750609
 10
58.35999999999999
 20
114.42936170212765
 10
55.39359999999996
 20
118.46680000000003
 10
51.63852398523984
 20
125.54040590405903
 10
47.1232311977716
 20
127.24259052924789
 10
36.20117150890347
 20
131.43231490159326
 10
23.62057939914165
 20
136.0931330472103
 10
14.03720556745182
 20
141.67517130620985
 10
8.126968503937007
 20
144.83800524934384
 10
3.9115873015873017
 20
148.15854341736696
 10
2.597756041426927
 20
148.22126582278483
  0
TEXT
  5
86
330
17
100
AcDbEntity
  8
LABELS
100
AcDbText
 10
100.14675555555557
 20
83.62035555555556
 30
0.0
 40
2.0
  1
126.0
100
AcDbText
  0
LWPOLYLINE
  5
87
330
17
100
AcDbEntity
  8
CONTOURS
100
AcDbPolyline
 90
5
 70
0
 10
484.9116197183099
 20
28.34140845070421
 10
477.71383064516135
 20
25.668830645161275
 10
475.8976821192053
 20
16.605960264900666
 10
475.65703549060544
 20
10.640146137787056
 10
477.7512820512821
 20
7.967897435897438
  0
TEXT
  5
88
330
17
100
AcDbEntity
  8
LABELS
100
AcDbText
 10
475.8976821192053
 20
16.605960264900666
 30
0.0
 40
2.0
  1
126.0
100
AcDbText
  0
LWPOLYLINE
  5
89
330
17
100
AcDbEntity
  8
CONTOURS
100
AcDbPolyline
 90
12
 70
0
 10
491.2523809523809
 20
417.73727891156466
 10
484.376547314578
 20
435.65036658141526
 10
481.9788358208955
 20
441.7474626865672
 10
471.12459459459467
 20
451.1513513513513
 10
468.3636241610738
 20
452.3939932885906
 10
462.01664634146346
 20
458.2180182926829
 10
455.9596266666667
 20
462.2510488888889
 10
442.46451640759926
 20
465.4552849740933
 10
428.75945454545456
 20
470.78031404958676
 10
416.08780141843977
 20
474.6701063829787
 10
400.3925894245723
 20
483.146399688958
 10
318.5944860813705
 20
493.12316916488226
  0
TEXT
  5
8A
330
17
100
AcDbEntity
  8
LABELS
100
AcDbText
 10
455.9596266666667
 20
462.2510488888889
 30
0.0
 40
2.0
  1
126.0
100
AcDbText
  0
LWPOLYLINE
  5
8B
330
17
100
AcDbEntity
  8
CONTOURS
100
AcDbPolyline
 90
5
 70
0
 10
3.146216216216217
 20
56.6302702702702
 10
4.132834890965732
 20
27.48144340602284
 10
5.0394784353059165
 20
25.796680040120354
 10
8.312807017543872
 20
18.305409356725143
 10
11.03448369565218
 20
16.24127717391304
  0
TEXT
  5
8C
330
17
100
AcDbEntity
  8
LABELS
100
AcDbText
 10
5.0394784353059165
 20
25.796680040120354
 30
0.0
 40
2.0
  1
128.0
100
AcDbText
  0
LWPOLYLINE
  5
8D
330
17
100
AcDbEntity
  8
CONTOURS
100
AcDbPolyline
 90
29
 70
0
 10
91.99174816625909
 20
8.007775061124697
 10
202.9700892857143
 20
6.58969068877551
 10
193.8222582359192
 20
7.105111583421891
 10
192.90677710843372
 20
11.478740963855422
 10
177.45836477987422
 20
28.15316981132076
 10
167.44201117318437
 20
38.19916201117317
 10
153.32396193771626
 20
48.20643598615916
 10
146.653452685422
 20
49.05838874680305
 10
135.94276301806588
 20
54.577577045696074
 10
134.07210526315788
 20
55.09925207756233
 10
120.44915966386556
 20
62.544621848739496
 10
120.20604863221884
 20
62.663495440729484
 10
118.40207243460766
 20
64.21374245472838
 10
104.36800000000027
 20
73.71999999999984
 10
93.9978666666667
 20
80.69146666666668
 10
86.79483541430197
 20
89.04553916004541
 10
86.613200498132
 20
89.2072353673724
 10
86.06872586872575
 20
89.53196911196922
 10
58.75706601466993
 20
107.04745721271392
 10
55.69333333333333
 20
110.31588652482269
 10
49.523285024154596
 20
118.71367149758451
 10
46.68036753445635
 20
120.30950995405817
 10
44.19084745762709
 20
122.29655367231638
 10
31.472024367385192
 20
127.17552014995314
 10
9.324442060085845
 20
135.38068669527897
 10
9.182815845824413
 20
135.46317987152034
 10
9.09547244094488
 20
135.50992125984254
 10
3.371904761904762
 20
140.018487394958
 10
2.5712888377445338
 20
140.0567088607595
  0
TEXT
  5
8E
330
17
100
AcDbEntity
  8
LABELS
100
AcDbText
 10
93.9978666666667
 20
80.69146666666668
 30
0.0
 40
2.0
  1
128.0
100
AcDbText
  0
LWPOLYLINE
  5
8F
330
17
100
AcDbEntity
  8
CONTOURS
100
AcDbPolyline
 90
43
 70
0
 10
492.0948717948718
 20
405.8073992673993
 10
486.6681074168798
 20
419.94533674339306
 10
482.1295820895523
 20
431.48626865671645
 10
465.19880412371134
 20
446.1547422680412
 10
463.07141949152543
 20
447.48813559322036
 10
461.2468421052631
 20
449.1771710526316
 10
454.278
 20
456.468
 10
453.4373780487805
 20
457.23935975609754
 10
453.26096
 20
457.3568266666667
 10
436.82893782383417
 20
461.2583937823834
 10
420.14127272727274
 20
467.7422975206612
 10
404.711914893617
 20
472.4786170212766
 10
385.6009875583203
 20
482.7995878693624
 10
346.1599431818182
 20
487.61014204545455
 10
343.50397553516825
 20
482.7936391437308
 10
337.10551351351364
 20
470.4692972972974
 10
337.5272727272728
 20
467.1633333333333
 10
358.35135135135135
 20
447.0332818532819
 10
356.51390862944163
 20
438.4961421319797
 10
353.06208
 20
432.38960000000003
 10
351.55328467153277
 20
431.46664233576644
 10
352.49704918032785
 20
430.05081967213107
 10
359.02075471698134
 20
418.8098113207543
 10
369.66582914572865
 20
402.7756783919598
 10
369.8578997613365
 20
399.0061097852029
 10
369.9749866666666
 20
398.48672
 10
370.434233937397
 20
397.74741350906095
 10
387.1030727762803
 20
360.5059478885894
 10
396.7876086956523
 20
321.64257246376803
 10
396.1836138613863
 20
321.10297029702963
 10
396.5174162679427
 20
320.56564593301437
 10
396.8550400000001
 20
318.2952800000002
 10
397.8571615720524
 20
305.48524017467247
 10
410.056164874552
 20
302.78422939068093
 10
420.72638596491225
 20
303.1571929824561
 10
432.92122065727705
 20
305.86178403755866
 10
456.25887323943664
 20
301.6460719874804
 10
462.17441108545034
 20
304.1646651270208
 10
468.5529911504425
 20
303.6360707964602
 10
473.7518578352182
 20
303.20852988691445
 10
479.1539884393064
 20
304.58872832369946
 10
494.2384044786564
 20
317.08104268719376
 10
495.6587267080746
 20
284.7014285714285
  0
TEXT
  5
90
330
17
100
AcDbEntity
  8
LABELS
100
AcDbText
 10
352.49704918032785
 20
430.05081967213107
 30
0.0
 40
2.0
  1
128.0
100
AcDbText
  0
LWPOLYLINE
  5
91
330
17
100
AcDbEntity
  8
CONTOURS
100
AcDbPolyline
 90
19
 70
0
 10
7.8103
 20
423.08396470588235
 10
11.511194630872481
 20
400.1408456375839
 10
13.911789473684216
 20
400.4876140350877
 10
15.717922912205573
 20
397.83732334047113
 10
25.641572327044027
 20
394.0547798742138
 10
26.530657439446323
 20
394.57996539792384
 10
41.02060869565216
 20
414.6386956521739
 10
43.599910313901326
 20
421.4181614349776
 10
48.10084507042258
 20
445.71103286384965
 10
48.138492307692346
 20
447.40384615384613
 10
47.50166219839145
 20
450.94890080428956
 10
45.90551637279593
 20
464.03236775818635
 10
36.59065217391306
 20
470.2358695652174
 10
35.09184
 20
471.34048
 10
34.22382352941177
 20
471.6364705882353
 10
33.26607692307693
 20
471.4666923076923
 10
10.246553398058248
 20
477.77004854368937
 10
5.782430939226517
 20
480.0474033149171
 10
7.8103
 20
423.08396470588235
  0
TEXT
  5
92
330
17
100
AcDbEntity
  8
LABELS
100
AcDbText
 10
48.138492307692346
 20
447.40384615384613
 30
0.0
 40
2.0
  1
128.0
100
AcDbText
  0
LWPOLYLINE
  5
93
330
17
100
AcDbEntity
  8
CONTOURS
100
AcDbPolyline
 90
36
 70
0
 10
381.1668085106383
 20
235.82198581560283
 10
365.5721666666668
 20
258.29949999999997
 10
348.00220588235294
 20
263.88125
 10
327.82324324324316
 20
264.55702702702706
 10
321.5213718411552
 20
263.2069675090253
 10
294.65144486692014
 20
236.01722433460077
 10
293.9038539042821
 20
235.69886649874056
 10
293.58263157894737
 20
234.70736842105262
 10
292.47866666666664
 20
233.942
 10
274.8662608695652
 20
218.06356521739127
 10
272.3616814159292
 20
214.37734513274327
 10
264.62240677966105
 20
198.05732203389832
 10
266.09611275964386
 20
179.776528189911
 10
267.85188775510204
 20
174.67632653061224
 10
272.26651821862345
 20
164.23706477732787
 10
277.51000000000005
 20
147.09999999999994
 10
278.4222950819672
 20
148.8729508196722
 10
290.40543478260884
 20
141.82652173913047
 10
294.6660175054705
 20
141.86899343544863
 10
296.13575
 20
141.85612500000002
 10
299.1484999999999
 20
142.02187500000002
 10
317.6038917525773
 20
144.10396907216494
 10
320.0205227272727
 20
143.47988636363638
 10
334.5008102766799
 20
148.42434782608694
 10
347.5966666666667
 20
160.6251515151516
 10
359.86891050583654
 20
166.92937743190666
 10
366.16402843601895
 20
178.00630331753553
 10
369.473059490085
 20
181.83229461756372
 10
373.19462809917354
 20
191.45016528925618
 10
377.12158836689036
 20
204.5308501118568
 10
380.6160995850622
 20
221.17551867219916
 10
382.273676975945
 20
225.0890034364261
 10
381.3869069069069
 20
226.1142942942943
 10
381.60517857142855
 20
227.81696428571428
 10
382.92727272727274
 20
231.43818181818182
 10
381.1668085106383
 20
235.82198581560283
  0
TEXT
  5
94
330
17
100
AcDbEntity
  8
LABELS
100
AcDbText
 10
294.6660175054705
 20
141.86899343544863
 30
0.0
 40
2.0
  1
128.0
100
AcDbText
  0
LWPOLYLINE
  5
95
330
17
100
AcDbEntity
  8
CONTOURS
100
AcDbPolyline
 90
8
 70
0
 10
2.7512058212058217
 20
101.9441995841995
 10
4.905420560747664
 20
38.299719626168226
 10
6.885015045135404
 20
34.62115346038114
 10
13.236091603053435
 20
20.086213740458085
 10
14.226298136645998
 20
18.526248447204978
 10
14.358196721311517
 20
17.99557377049179
 10
14.844365482233563
 20
17.648451776649722
 10
19.974701086956546
 20
13.757581521739123
  0
TEXT
  5
96
330
17
100
AcDbEntity
  8
LABELS
100
AcDbText
 10
14.226298136645998
 20
18.526248447204978
 30
0.0
 40
2.0
  1
130.0
100
AcDbText
  0
LWPOLYLINE
  5
97
330
17
100
AcDbEntity
  8
CONTOURS
100
AcDbPolyline
 90
28
 70
0
 10
72.37561124694366
 20
8.42831295843521
 10
191.559375
 20
6.905379464285713
 10
186.656477151966
 20
7.181625929861848
 10
186.16581325301206
 20
9.52572891566265
 10
177.88603773584907
 20
18.46260377358491
 10
162.36619313647245
 20
34.02837190742217
 10
151.4243079584775
 20
41.78429065743943
 10
146.2544757033248
 20
42.44457800511507
 10
137.95339001062698
 20
46.722104144527094
 10
128.8878947368421
 20
49.2502216066482
 10
117.22226890756302
 20
55.625854341736684
 10
115.62854103343466
 20
56.40513677811551
 10
103.80247484909461
 20
66.56786720321931
 10
89.8326315789474
 20
76.03061784897028
 10
85.9218579234973
 20
80.8064480874317
 10
82.24415584415587
 20
85.11493506493508
 10
76.6372093023256
 20
88.73046511627906
 10
58.502787286063565
 20
100.36041564792173
 10
53.026666666666664
 20
106.20241134751771
 10
50.837294685990344
 20
109.18227053140095
 10
42.52722817764166
 20
113.8470290964778
 10
35.25016949152539
 20
119.65531073446326
 10
26.742877225866913
 20
122.91872539831303
 10
11.758519134775376
 20
128.47008319467554
 10
8.641275862068966
 20
128.82824137931036
 10
4.914983818770233
 20
130.2377993527508
 10
2.8322222222222235
 20
131.87843137254902
 10
2.54482163406214
 20
131.89215189873417
  0
TEXT
  5
98
330
17
100
AcDbEntity
  8
LABELS
100
AcDbText
 10
85.9218579234973
 20
80.8064480874317
 30
0.0
 40
2.0
  1
130.0
100
AcDbText
  0
LWPOLYLINE
  5
99
330
17
100
AcDbEntity
  8
CONTOURS
100
AcDbPolyline
 90
39
 70
0
 10
492.93736263736264
 20
393.8775196232339
 10
488.9596675191816
 20
404.2403069053709
 10
482.2803283582089
 20
421.22507462686565
 10
469.04622680412376
 20
432.69082474226803
 10
459.0396398305085
 20
438.96271186440674
 10
450.45736842105265
 20
446.9074342105263
 10
448.87065573770485
 20
448.5674590163934
 10
444.9092890995261
 20
449.6812322274881
 10
429.97999999999996
 20
458.26937499999997
 10
423.5141279069768
 20
460.69453488372096
 10
412.8081065088757
 20
460.4198224852071
 10
409.321235059761
 20
460.79063745019914
 10
397.03892857142876
 20
461.9232142857142
 10
385.17333333333335
 20
459.6791666666665
 10
380.25142857142845
 20
456.8885714285712
 10
373.0964285714286
 20
454.61571428571426
 10
372.56027397260283
 20
446.9621232876713
 10
377.90680473372777
 20
430.6794674556213
 10
383.12557894736847
 20
420.46431578947374
 10
383.14660714285725
 20
418.03571428571433
 10
383.2120187793428
 20
415.27568075117364
 10
384.3447732696897
 20
393.0442959427208
 10
385.19365333333326
 20
389.27872
 10
388.5231960461285
 20
383.9187479406919
 10
399.3941778975741
 20
359.63083557951484
 10
406.03625668449206
 20
332.9766310160428
 10
410.95201376936325
 20
324.9718932874355
 10
423.7624120603016
 20
314.2889949748744
 10
423.12873684210535
 20
313.46547368421056
 10
425.7058426966292
 20
313.59730337078656
 10
428.46373673036095
 20
315.7021656050955
 10
440.18356807511725
 20
312.7729577464789
 10
461.3574647887324
 20
308.94810641627544
 10
466.99810679611653
 20
311.34966019417476
 10
474.26874999999995
 20
312.2555263157895
 10
474.64406779661016
 20
312.8257203389831
 10
475.830585106383
 20
313.37478723404257
 10
494.5085234429671
 20
328.8431140657802
 10
495.5495874001775
 20
305.1095918367346
  0
TEXT
  5
9A
330
17
100
AcDbEntity
  8
LABELS
100
AcDbText
 10
383.14660714285725
 20
418.03571428571433
 30
0.0
 40
2.0
  1
130.0
100
AcDbText
  0
LWPOLYLINE
  5
9B
330
17
100
AcDbEntity
  8
CONTOURS
100
AcDbPolyline
 90
14
 70
0
 10
8.0703
 20
436.7945529411765
 10
11.404428571428577
 20
416.1251428571428
 10
17.040322580645086
 20
418.9070967741934
 10
27.703118279569946
 20
428.750752688172
 10
28.87679611650496
 20
436.12621359223306
 10
28.234109589041168
 20
439.3835616438357
 10
24.98166666666668
 20
447.62805555555553
 10
31.901111111111113
 20
454.28638888888884
 10
31.754285714285718
 20
458.12326530612245
 10
30.076764705882354
 20
458.69529411764705
 10
20.412230769230746
 20
456.9820769230769
 10
16.736844660194187
 20
457.9884951456311
 10
7.141546961325966
 20
462.88349907918973
 10
8.0703
 20
436.7945529411765
  0
TEXT
  5
9C
330
17
100
AcDbEntity
  8
LABELS
100
AcDbText
 10
31.901111111111113
 20
454.28638888888884
 30
0.0
 40
2.0
  1
130.0
100
AcDbText
  0
LWPOLYLINE
  5
9D
330
17
100
AcDbEntity
  8
CONTOURS
100
AcDbPolyline
 90
25
 70
0
 10
354.77050991501415
 20
181.3053824362606
 10
365.0789256198347
 20
207.94603305785122
 10
365.8643176733781
 20
210.56217002237136
 10
366.90194174757283
 20
215.5044660194175
 10
359.784
 20
225.726
 10
345.3586206896552
 20
244.11137931034494
 10
332.47692771084354
 20
242.76512048192785
 10
325.10259927797836
 20
241.18530685920587
 10
319.8149429657794
 20
235.83471482889732
 10
308.3874811083123
 20
230.96838790931992
 10
303.4773684210526
 20
215.8126315789474
 10
287.6225531914892
 20
204.8206382978723
 10
290.0266666666659
 20
198.00333333333492
 10
291.34894308943075
 20
194.74398373983743
 10
291.3219753086418
 20
194.11962962962937
 10
291.4846017699114
 20
194.26380530973432
 10
297.1071764705883
 20
173.25441176470588
 10
303.36329268292684
 20
166.06182926829266
 10
307.13749999999993
 20
157.46749999999997
 10
315.7946134020618
 20
158.44417525773193
 10
325.4250681818182
 20
155.95715909090913
 10
332.14112648221345
 20
158.25043478260872
 10
346.45007272727264
 20
171.58141818181815
 10
353.03
 20
179.29295774647886
 10
354.77050991501415
 20
181.3053824362606
  0
TEXT
  5
9E
330
17
100
AcDbEntity
  8
LABELS
100
AcDbText
 10
290.0266666666659
 20
198.00333333333492
 30
0.0
 40
2.0
  1
130.0
100
AcDbText
  0
LWPOLYLINE
  5
9F
330
17
100
AcDbEntity
  8
CONTOURS
100
AcDbPolyline
 90
36
 70
0
 10
52.75947432762823
 20
8.848850855745724
 10
180.1486607142857
 20
7.221068239795917
 10
179.49069606801274
 20
7.2581402763018055
 10
179.42484939759038
 20
7.5727168674698815
 10
178.31371069182393
 20
8.772037735849066
 10
157.29037509976058
 20
29.857581803671174
 10
149.52465397923874
 20
35.36214532871969
 10
145.8554987212276
 20
35.83076726342708
 10
139.96401700318808
 20
38.866631243358114
 10
123.7036842105263
 20
43.40119113573407
 10
113.9953781512605
 20
48.70708683473388
 10
111.05103343465046
 20
50.14677811550153
 10
89.20287726358157
 20
68.92199195171024
 10
85.93789473684213
 20
71.13359267734558
 10
78.95070422535206
 20
79.66633802816914
 10
77.73790322580646
 20
80.84104838709679
 10
76.85287356321844
 20
81.70540229885056
 10
66.41896243291589
 20
88.43350626118068
 10
58.24850855745721
 20
93.67337408312954
 10
53.856062992126006
 20
98.35929133858262
 10
49.69934782608694
 20
100.3986956521739
 10
45.42945606694561
 20
103.42410041841003
 10
38.37408882082697
 20
107.38454823889742
 10
26.309491525423695
 20
117.01406779661016
 10
22.01373008434863
 20
118.6619306466729
 10
14.447371048252919
 20
121.46509151414307
 10
8.16541379310345
 20
122.18686206896555
 10
4.218560885608842
 20
123.67985239852402
 10
3.382614107883814
 20
116.93344398340251
 10
5.678006230529596
 20
49.11799584631362
 10
8.730551654964895
 20
43.44562688064192
 10
13.058992366412213
 20
33.539648854961875
 10
21.38406211180127
 20
20.424385093167707
 10
22.492987249544655
 20
15.962786885245894
 10
26.58040609137063
 20
13.044390862944136
 10
28.914918478260912
 20
11.273885869565206
  0
TEXT
  5
A0
330
17
100
AcDbEntity
  8
LABELS
100
AcDbText
 10
58.24850855745721
 20
93.67337408312954
 30
0.0
 40
2.0
  1
132.0
100
AcDbText
  0
LWPOLYLINE
  5
A1
330
17
100
AcDbEntity
  8
CONTOURS
100
AcDbPolyline
 90
29
 70
0
 10
493.7798534798535
 20
381.94763997906864
 10
491.2512276214834
 20
388.5352770673488
 10
482.43107462686567
 20
410.96388059701496
 10
472.8936494845361
 20
419.22690721649485
 10
455.00786016949155
 20
430.43728813559323
 10
447.14359375
 20
437.71734374999994
 10
443.685
 20
436.59833333333336
 10
431.52181818181816
 20
440.1272727272727
 10
422.63694656488553
 20
445.6704198473282
 10
414.6598113207547
 20
445.4216981132075
 10
397.73452554744534
 20
434.29306569343066
 10
396.75730434782616
 20
433.08217391304345
 10
397.58502074688795
 20
424.4523236514523
 10
397.61089285714286
 20
421.46428571428567
 10
398.0727386541472
 20
401.97677621283253
 10
398.83164677804297
 20
387.0824821002387
 10
400.41231999999997
 20
380.07072000000005
 10
406.6121581548599
 20
370.0900823723229
 10
411.6852830188679
 20
358.7557232704403
 10
414.78491978609634
 20
346.31709447415335
 10
424.98643717728066
 20
329.70511187607576
 10
431.9828272251309
 20
323.87065445026184
 10
433.63146496815284
 20
325.1289171974522
 10
458.4572093023256
 20
318.9240697674419
 10
462.84384375
 20
318.26156249999997
 10
465.89830508474574
 20
322.9019915254238
 10
482.9050531914894
 20
330.7719503546099
 10
494.77864240727786
 20
340.6051854443666
 10
495.44044809228035
 20
325.5177551020407
  0
TEXT
  5
A2
330
17
100
AcDbEntity
  8
LABELS
100
AcDbText
 10
398.0727386541472
 20
401.97677621283253
 30
0.0
 40
2.0
  1
132.0
100
AcDbText
  0
LWPOLYLINE
  5
A3
330
17
100
AcDbEntity
  8
CONTOURS
100
AcDbPolyline
 90
10
 70
0
 10
334.34194174757283
 20
186.69155339805832
 10
324.6911111111111
 20
205.10777777777776
 10
322.61109374999995
 20
207.22078125000002
 10
321.4812605042016
 20
205.35957983193276
 10
321.58619999999996
 20
203.2967999999999
 10
326.6820930232558
 20
178.07069767441862
 10
326.59309090909085
 20
175.70945454545455
 10
330.64
 20
172.489827586207
 10
334.5985863874346
 20
179.4240837696335
 10
334.34194174757283
 20
186.69155339805832
  0
TEXT
  5
A4
330
17
100
AcDbEntity
  8
LABELS
100
AcDbText
 10
326.6820930232558
 20
178.07069767441862
 30
0.0
 40
2.0
  1
132.0
100
AcDbText
  0
LWPOLYLINE
  5
A5
330
17
100
AcDbEntity
  8
CONTOURS
100
AcDbPolyline
 90
22
 70
0
 10
494.6223443223443
 20
370.01776033490324
 10
493.5427877237852
 20
372.83024722932663
 10
482.5818208955224
 20
400.70268656716416
 10
476.7410721649485
 20
405.76298969072167
 10
450.97608050847464
 20
421.91186440677967
 10
446.32171875
 20
426.22046875
 10
438.25166666666667
 20
423.6094444444444
 10
422.26358490566037
 20
428.2481132075472
 10
414.5335540069686
 20
419.18777003484325
 10
412.4806600660066
 20
407.7836303630363
 10
412.9334585289515
 20
388.67787167449137
 10
413.31852028639616
 20
381.12066825775656
 10
415.6309866666667
 20
370.8627200000001
 10
422.81937062937067
 20
359.2906993006993
 10
424.8710344827586
 20
356.8025
 10
438.81929245283027
 20
334.61834905660385
 10
439.9595161290325
 20
334.44338709677425
 10
456.47509375000004
 20
331.9490625
 10
457.1525423728814
 20
332.9782627118645
 10
489.97952127659573
 20
348.16911347517726
 10
495.0487613715885
 20
352.36725682295304
 10
495.33130878438334
 20
345.92591836734687
  0
TEXT
  5
A6
330
17
100
AcDbEntity
  8
LABELS
100
AcDbText
 10
413.31852028639616
 20
381.12066825775656
 30
0.0
 40
2.0
  1
134.0
100
AcDbText
  0
LWPOLYLINE
  5
A7
330
17
100
AcDbEntity
  8
CONTOURS
100
AcDbPolyline
 90
40
 70
0
 10
6.450591900311528
 20
59.936272066459
 10
10.57608826479438
 20
52.2701003009027
 10
12.881893129770994
 20
46.993083969465665
 10
28.541826086956537
 20
22.322521739130437
 10
30.62777777777779
 20
13.929999999999996
 10
36.2118064516129
 20
9.94303225806454
 10
37.34796327212024
 20
9.818681135225399
 10
37.693709677419406
 20
9.193225806451611
 10
154.65182151589246
 20
7.639816625916869
 10
164.75309767441863
 20
8.199106976744185
 10
164.24273673257022
 20
8.522112382934443
 10
166.0186462882096
 20
11.841855895196517
 10
152.21455706304866
 20
25.68679169992017
 10
147.625
 20
28.939999999999966
 10
145.4565217391304
 20
29.216956521739093
 10
141.9746439957492
 20
31.011158342189127
 10
118.51947368421051
 20
37.55216066481994
 10
110.76848739495799
 20
41.788319327731074
 10
106.47352583586627
 20
43.88841945288756
 10
85.79547008547009
 20
61.65810744810753
 10
83.70309111880047
 20
62.864752018454496
 10
79.3820802377415
 20
63.80736998514121
 10
74.34463276836158
 20
69.67141242937853
 10
72.49596774193547
 20
71.46201612903225
 10
64.58810810810829
 20
79.18513513513491
 10
58.263886925795056
 20
85.80102473498225
 10
55.24563106796106
 20
87.7793203883495
 10
45.56456521739129
 20
92.52913043478257
 10
36.842307692307685
 20
98.7092307692308
 10
34.28918256130792
 20
99.86991825613082
 10
32.115875000000024
 20
100.595875
 10
18.505636363636143
 20
113.46545454545468
 10
17.368813559322
 20
114.37282485875706
 10
17.284582942830347
 20
114.40513589503277
 10
17.13622296173046
 20
114.46009983361061
 10
15.388095238095422
 20
114.66095238095235
 10
8.233928571428542
 20
114.08922619047631
 10
7.687298578199055
 20
112.42962085308082
 10
5.320373443983401
 20
93.32763485477179
 10
6.450591900311528
 20
59.936272066459
  0
TEXT
  5
A8
330
17
100
AcDbEntity
  8
LABELS
100
AcDbText
 10
83.70309111880047
 20
62.864752018454496
 30
0.0
 40
2.0
  1
134.0
100
AcDbText
  0
LWPOLYLINE
  5
A9
330
17
100
AcDbEntity
  8
CONTOURS
100
AcDbPolyline
 90
21
 70
0
 10
482.7325671641791
 20
390.4414925373134
 10
480.58849484536086
 20
392.2990721649485
 10
446.9443008474576
 20
413.3864406779661
 10
445.49984374999997
 20
414.7235937500001
 10
434.2939999999999
 20
411.09799999999996
 10
433.909254658385
 20
410.7625465838509
 10
430.0587500000001
 20
388.5887500000008
 10
427.78099009900984
 20
375.93544554455445
 10
427.79417840375584
 20
375.37896713615027
 10
427.8053937947494
 20
375.1588544152745
 10
427.9925
 20
374.3288636363637
 10
428.3290551181103
 20
370.79551181102363
 10
443.39629213483164
 20
348.4219101123595
 10
444.3193103448276
 20
347.30249999999995
 10
444.79099056603775
 20
346.55231132075477
 10
445.4508
 20
346.45106666666675
 10
455.74523287671235
 20
350.71808219178087
 10
478.0965024630543
 20
358.65251231527105
 10
491.88675675675677
 20
364.38756756756754
 10
491.4540119760479
 20
368.26389221556883
 10
482.7325671641791
 20
390.4414925373134
  0
TEXT
  5
AA
330
17
100
AcDbEntity
  8
LABELS
100
AcDbText
 10
427.9925
 20
374.3288636363637
 30
0.0
 40
2.0
  1
136.0
100
AcDbText
  0
LWPOLYLINE
  5
AB
330
17
100
AcDbEntity
  8
CONTOURS
100
AcDbPolyline
 90
36
 70
0
 10
147.13873902633676
 20
21.51600159616917
 10
145.72534602076124
 20
22.517854671280233
 10
145.05754475703324
 20
22.60314578005111
 10
143.98527098831033
 20
23.155685441020143
 10
113.3352631578947
 20
31.7031301939058
 10
107.54159663865545
 20
34.86955182072827
 10
101.89601823708209
 20
37.63006079027358
 10
87.29974358974357
 20
50.173369963370035
 10
82.1967474048443
 20
53.11619377162634
 10
71.65845468053496
 20
55.4150965824666
 10
67.33895161290322
 20
60.44338709677419
 10
62.43110047846889
 20
69.47071770334928
 10
59.50770318021202
 20
72.5289399293286
 10
48.96558441558458
 20
79.43870129870115
 10
42.267821782178224
 20
83.97564356435637
 10
41.66061224489795
 20
83.70571428571422
 10
39.193835616438264
 20
85.28520547945205
 10
30.403623978201633
 20
89.28136239782016
 10
21.062125984252045
 20
92.40173228346447
 10
20.11322580645158
 20
92.75897849462359
 10
13.36625000000001
 20
93.58718749999996
 10
7.482099447513823
 20
70.8954143646409
 10
7.880281690140863
 20
70.95816901408453
 10
8.16705882352944
 20
69.00058823529409
 10
12.42162487462387
 20
61.094573721163485
 10
12.704793893129771
 20
60.44651908396946
 10
35.69959006211181
 20
24.220658385093166
 10
37.564375000000005
 20
16.717968750000004
 10
38.815405405405414
 20
14.049729729729732
 10
43.21440734557599
 20
13.56826377295494
 10
45.65558651026396
 20
9.15217008797654
 10
126.57113691931548
 20
8.07746943765281
 10
148.62658604651165
 20
9.298641860465114
 10
147.51224765868884
 20
10.003902185223728
 10
151.38982532751083
 20
17.25233624454151
 10
147.13873902633676
 20
21.51600159616917
  0
TEXT
  5
AC
330
17
100
AcDbEntity
  8
LABELS
100
AcDbText
 10
21.062125984252045
 20
92.40173228346447
 30
0.0
 40
2.0
  1
136.0
100
AcDbText
  0
LWPOLYLINE
  5
AD
330
17
100
AcDbEntity
  8
CONTOURS
100
AcDbPolyline
 90
7
 70
0
 10
462.69962264150945
 20
376.018679245283
 10
453.9750704225352
 20
382.8788732394365
 10
454.0666101694915
 20
373.79254237288137
 10
456.1580930232558
 20
371.0546046511628
 10
457.2630410958904
 20
371.51260273972605
 10
461.5719753086419
 20
373.0422222222222
 10
462.69962264150945
 20
376.018679245283
  0
TEXT
  5
AE
330
17
100
AcDbEntity
  8
LABELS
100
AcDbText
 10
456.1580930232558
 20
371.0546046511628
 30
0.0
 40
2.0
  1
138.0
100
AcDbText
  0
LWPOLYLINE
  5
AF
330
17
100
AcDbEntity
  8
CONTOURS
100
AcDbPolyline
 90
27
 70
0
 10
43.719966996699675
 20
71.54660066006595
 10
39.06469387755102
 20
69.4771428571429
 10
37.24575757575753
 20
70.64181818181825
 10
36.50799999999991
 20
69.23700000000004
 10
36.769197860962485
 20
67.92229946524061
 10
28.76968299711815
 20
56.65945244956772
 10
42.412842639593904
 20
28.69964467005075
 10
43.1090099009901
 20
27.508811881188123
 10
43.46021276595744
 20
25.268723404255322
 10
47.08567567567569
 20
17.53621621621622
 10
49.08085141903174
 20
17.317846410684485
 10
53.617463343108504
 20
9.111114369501466
 10
98.49045232273849
 20
8.515122249388751
 10
132.50007441860467
 20
10.398176744186046
 10
130.78175858480745
 20
11.485691987513013
 10
134.5325049701788
 20
18.49703777335983
 10
108.15105263157892
 20
25.85409972299167
 10
104.31470588235292
 20
27.950784313725457
 10
97.31851063829788
 20
31.3717021276596
 10
88.80401709401708
 20
38.68863247863255
 10
80.69040369088813
 20
43.36763552479819
 10
63.9348291233284
 20
47.022823179792
 10
62.20185483870968
 20
49.04016129032259
 10
59.24557491289198
 20
54.47783972125437
 10
52.96164634146341
 20
60.771097560975605
 10
49.27278761061942
 20
67.78522123893805
 10
43.719966996699675
 20
71.54660066006595
  0
TEXT
  5
B0
330
17
100
AcDbEntity
  8
LABELS
100
AcDbText
 10
132.50007441860467
 20
10.398176744186046
 30
0.0
 40
2.0
  1
138.0
100
AcDbText
  0
LWPOLYLINE
  5
B1
330
17
100
AcDbEntity
  8
CONTOURS
100
AcDbPolyline
 90
14
 70
0
 10
70.40976772616149
 20
8.952775061124692
 10
116.3735627906977
 20
11.497711627906975
 10
114.05126951092603
 20
12.967481789802298
 10
115.88836978131201
 20
16.40161033797215
 10
102.96684210526313
 20
20.005069252077533
 10
101.08781512605039
 20
21.032016806722652
 10
92.74100303951371
 20
25.113343465045627
 10
90.3082905982906
 20
27.203894993895062
 10
79.18405997693195
 20
33.61907727797003
 10
65.38041237113399
 20
36.63030927835053
 10
59.04370370370374
 20
21.88864197530865
 10
57.87433734939758
 20
15.77240963855424
 10
61.57934017595305
 20
9.070058651026393
 10
70.40976772616149
 20
8.952775061124692
  0
TEXT
  5
B2
330
17
100
AcDbEntity
  8
LABELS
100
AcDbText
 10
90.3082905982906
 20
27.203894993895062
 30
0.0
 40
2.0
  1
140.0
100
AcDbText
  0
LWPOLYLINE
  5
B3
330
17
100
AcDbEntity
  8
CONTOURS
100
AcDbPolyline
 90
6
 70
0
 10
100.24705116279071
 20
12.597246511627905
 10
97.54859649122801
 20
14.305087719298234
 10
91.32946902654867
 20
17.602920353982327
 10
83.6725842696629
 20
21.63617977528091
 10
80.08124513618671
 20
11.48070038910505
 10
100.24705116279071
 20
12.597246511627905
  0
TEXT
  5
B4
330
17
100
AcDbEntity
  8
LABELS
100
AcDbText
 10
83.6725842696629
 20
21.63617977528091
 30
0.0
 40
2.0
  1
142.0
100
AcDbText
  0
ENDSEC
  0
SECTION
  2
OBJECTS
  0
DICTIONARY
  5
A
330
0
100
AcDbDictionary
281
1
  3
ACAD_COLOR
350
B
  3
ACAD_GROUP
350
C
  3
ACAD_LAYOUT
350
D
  3
ACAD_MATERIAL
350
E
  3
ACAD_MLEADERSTYLE
350
F
  3
ACAD_MLINESTYLE
350
10
  3
ACAD_PLOTSETTINGS
350
11
  3
ACAD_PLOTSTYLENAME
350
12
  3
ACAD_SCALELIST
350
14
  3
ACAD_TABLESTYLE
350
15
  3
ACAD_VISUALSTYLE
350
16
  3
EZDXF_META
350
2D
  0
DICTIONARY
  5
B
330
A
100
AcDbDictionary
281
1
  0
DICTIONARY
  5
C
330
A
100
AcDbDictionary
281
1
  0
DICTIONARY
  5
D
330
A
100
AcDbDictionary
281
1
  3
Model
350
1A
  3
Layout1
350
1E
  0
DICTIONARY
  5
E
330
A
100
AcDbDictionary
281
1
  3
ByBlock
350
1F
  3
ByLayer
350
20
  3
Global
350
21
  0
DICTIONARY
  5
F
330
A
100
AcDbDictionary
281
1
  3
Standard
350
2C
  0
DICTIONARY
  5
10
330
A
100
AcDbDictionary
281
1
  3
Standard
350
22
  0
DICTIONARY
  5
11
330
A
100
AcDbDictionary
281
1
  0
ACDBDICTIONARYWDFLT
  5
12
330
A
100
AcDbDictionary
281
1
  3
Normal
350
13
100
AcDbDictionaryWithDefault
340
13
  0
ACDBPLACEHOLDER
  5
13
330
12
  0
DICTIONARY
  5
14
330
A
100
AcDbDictionary
281
1
  0
DICTIONARY
  5
15
330
A
100
AcDbDictionary
281
1
  0
DICTIONARY
  5
16
330
A
100
AcDbDictionary
281
1
  0
LAYOUT
  5
1A
330
D
100
AcDbPlotSettings
  1

  4
A3
  6

 40
7.5
 41
20.0
 42
7.5
 43
20.0
 44
420.0
 45
297.0
 46
0.0
 47
0.0
 48
0.0
 49
0.0
140
0.0
141
0.0
142
1.0
143
1.0
 70
1024
 72
1
 73
0
 74
5
  7

 75
16
 76
0
 77
2
 78
300
147
1.0
148
0.0
149
0.0
100
AcDbLayout
  1
Model
 70
1
 71
0
 10
0.0
 20
0.0
 11
420.0
 21
297.0
 12
0.0
 22
0.0
 32
0.0
 14
1e+20
 24
1e+20
 34
1e+20
 15
-1e+20
 25
-1e+20
 35
-1e+20
146
0.0
 13
0.0
 23
0.0
 33
0.0
 16
1.0
 26
0.0
 36
0.0
 17
0.0
 27
1.0
 37
0.0
 76
1
330
17
  0
LAYOUT
  5
1E
330
D
100
AcDbPlotSettings
  1

  4
A3
  6

 40
7.5
 41
20.0
 42
7.5
 43
20.0
 44
420.0
 45
297.0
 46
0.0
 47
0.0
 48
0.0
 49
0.0
140
0.0
141
0.0
142
1.0
143
1.0
 70
0
 72
1
 73
0
 74
5
  7

 75
16
 76
0
 77
2
 78
300
147
1.0
148
0.0
149
0.0
100
AcDbLayout
  1
Layout1
 70
1
 71
1
 10
0.0
 20
0.0
 11
420.0
 21
297.0
 12
0.0
 22
0.0
 32
0.0
 14
1e+20
 24
1e+20
 34
1e+20
 15
-1e+20
 25
-1e+20
 35
-1e+20
146
0.0
 13
0.0
 23
0.0
 33
0.0
 16
1.0
 26
0.0
 36
0.0
 17
0.0
 27
1.0
 37
0.0
 76
1
330
1B
  0
MATERIAL
  5
1F
102
{ACAD_REACTORS
330
E
102
}
330
E
100
AcDbMaterial
  1
ByBlock
  2

 70
0
 40
1.0
 71
1
 41
1.0
 91
-1023410177
 42
1.0
 72
1
  3

 73
1
 74
1
 75
1
 44
0.5
 73
0
 45
1.0
 46
1.0
 77
1
  4

 78
1
 79
1
170
1
 48
1.0
171
1
  6

172
1
173
1
174
1
140
1.0
141
1.0
175
1
  7

176
1
177
1
178
1
143
1.0
179
1
  8

270
1
271
1
272
1
145
1.0
146
1.0
273
1
  9

274
1
275
1
276
1
 42
1.0
 72
1
  3

 73
1
 74
1
 75
1
 94
63
  0
MATERIAL
  5
20
102
{ACAD_REACTORS
330
E
102
}
330
E
100
AcDbMaterial
  1
ByLayer
  2

 70
0
 40
1.0
 71
1
 41
1.0
 91
-1023410177
 42
1.0
 72
1
  3

 73
1
 74
1
 75
1
 44
0.5
 73
0
 45
1.0
 46
1.0
 77
1
  4

 78
1
 79
1
170
1
 48
1.0
171
1
  6

172
1
173
1
174
1
140
1.0
141
1.0
175
1
  7

176
1
177
1
178
1
143
1.0
179
1
  8

270
1
271
1
272
1
145
1.0
146
1.0
273
1
  9

274
1
275
1
276
1
 42
1.0
 72
1
  3

 73
1
 74
1
 75
1
 94
63
  0
MATERIAL
  5
21
102
{ACAD_REACTORS
330
E
102
}
330
E
100
AcDbMaterial
  1
Global
  2

 70
0
 40
1.0
 71
1
 41
1.0
 91
-1023410177
 42
1.0
 72
1
  3

 73
1
 74
1
 75
1
 44
0.5
 73
0
 45
1.0
 46
1.0
 77
1
  4

 78
1
 79
1
170
1
 48
1.0
171
1
  6

172
1
173
1
174
1
140
1.0
141
1.0
175
1
  7

176
1
177
1
178
1
143
1.0
179
1
  8

270
1
271
1
272
1
145
1.0
146
1.0
273
1
  9

274
1
275
1
276
1
 42
1.0
 72
1
  3

 73
1
 74
1
 75
1
 94
63
  0
MLINESTYLE
  5
22
102
{ACAD_REACTORS
330
10
102
}
330
10
100
AcDbMlineStyle
  2
Standard
 70
0
  3

 62
256
 51
90.0
 52
90.0
 71
2
 49
0.5
 62
256
  6
BYLAYER
 49
-0.5
 62
256
  6
BYLAYER
  0
MLEADERSTYLE
  5
2C
102
{ACAD_REACTORS
330
F
102
}
330
F
100
AcDbMLeaderStyle
179
2
170
2
171
1
172
0
 90
2
 40
0.0
 41
0.0
173
1
 91
-1056964608
 92
-2
290
1
 42
2.0
291
1
 43
8.0
  3
Standard
 44
4.0
300

342
29
174
1
175
1
176
0
178
1
 93
-1056964608
 45
4.0
292
0
297
0
 46
4.0
 94
-1056964608
 47
1.0
 49
1.0
140
1.0
294
1
141
0.0
177
0
142
1.0
295
0
296
0
143
3.75
271
0
272
9
273
9
  0
DICTIONARY
  5
2D
330
A
100
AcDbDictionary
280
1
281
1
  3
CREATED_BY_EZDXF
350
2E
  3
WRITTEN_BY_EZDXF
350
B7
  0
DICTIONARYVAR
  5
2E
330
2D
100
DictionaryVariables
280
0
  1
1.4.3 @ 2026-02-18T07:39:33.284483+00:00
  0
DICTIONARYVAR
  5
B7
330
2D
100
DictionaryVariables
280
0
  1
1.4.3 @ 2026-02-18T07:39:33.303275+00:00
  0
ENDSEC
  0
EOF
